<?xml version="1.0" standalone="no"?>
<!DOCTYPE svg PUBLIC "-//W3C//DTD SVG 1.1//EN" "http://www.w3.org/Graphics/SVG/1.1/DTD/svg11.dtd" >
<svg xmlns="http://www.w3.org/2000/svg" xmlns:xlink="http://www.w3.org/1999/xlink" version="1.1">
<metadata></metadata>
<defs>
<font id="tablet_gothiclight" horiz-adv-x="1024" >
<font-face units-per-em="2048" ascent="1546" descent="-502" />
<missing-glyph horiz-adv-x="409" />
<glyph unicode="&#xfb01;" horiz-adv-x="1083" d="M57 936v111h129v108q0 87 11.5 149t42.5 116t91 81t150 27q67 0 148 -23v-108q-75 22 -148 22q-91 0 -126.5 -59t-35.5 -182v-131h609v-1047h-135v936h-474v-936h-133v936h-129zM793 1300v203h135v-203h-135z" />
<glyph unicode="&#xfb02;" horiz-adv-x="1083" d="M57 936v111h129v108q0 87 11.5 149t42.5 116t91 81t150 27q67 0 148 -23v-108q-75 22 -148 22q-91 0 -126.5 -59t-35.5 -182v-131h259v-111h-259v-936h-133v936h-129zM793 0v1503h135v-1503h-135z" />
<glyph unicode="&#xfb03;" horiz-adv-x="1689" d="M57 936v111h129v98q0 87 11.5 149t42.5 116t91 81t150 27q69 0 156 -25l-12 -107q-79 23 -144 23q-91 0 -126.5 -59.5t-35.5 -182.5v-120h474v108q0 69 6.5 121t25.5 101.5t51 81t85 50.5t126 19q67 0 148 -23v-108q-75 22 -148 22q-91 0 -126 -59t-35 -182v-131h608 v-1047h-135v936h-473v-936h-133v936h-474v-936h-133v936h-129zM1399 1300v203h135v-203h-135z" />
<glyph unicode="&#xfb04;" horiz-adv-x="1689" d="M57 936v111h129v98q0 87 11.5 149t42.5 116t91 81t150 27q69 0 156 -25l-12 -107q-79 23 -144 23q-91 0 -126.5 -59.5t-35.5 -182.5v-120h474v108q0 69 6.5 121t25.5 101.5t51 81t85 50.5t126 19q67 0 148 -23v-108q-75 22 -148 22q-91 0 -126 -59t-35 -182v-131h258 v-111h-258v-936h-133v936h-474v-936h-133v936h-129zM1399 0v1503h135v-1503h-135z" />
<glyph horiz-adv-x="0" />
<glyph horiz-adv-x="682" />
<glyph unicode=" "  horiz-adv-x="409" />
<glyph unicode="&#x09;" horiz-adv-x="409" />
<glyph unicode="&#xa0;" horiz-adv-x="409" />
<glyph unicode="!" horiz-adv-x="569" d="M205 1503h160l-13 -1087h-135zM211 0v223h151v-223h-151z" />
<glyph unicode="&#x22;" horiz-adv-x="692" d="M154 1503h133l-15 -436h-104zM406 1503h133l-15 -436h-104z" />
<glyph unicode="#" horiz-adv-x="1339" d="M109 305l18 107h235l50 338h-246l18 108h244l41 279h125l-41 -279h313l41 279h127l-41 -279h238l-19 -108h-235l-49 -338h250l-19 -107h-248l-45 -305h-127l45 305h-313l-45 -305h-125l45 305h-237zM487 412h314l49 338h-313z" />
<glyph unicode="$" horiz-adv-x="1189" d="M92 483l137 23q16 -179 83.5 -265.5t232.5 -97.5v574q-51 10 -85.5 19t-80 24.5t-75.5 34t-62.5 47t-51 63.5t-31 84t-12.5 109q0 171 110.5 270t287.5 115v149h121v-147q190 -17 289 -140t112 -325l-131 -16q-25 324 -270 356v-537q56 -13 89.5 -21.5t83.5 -25.5 t80.5 -35t66 -47.5t55 -64.5t33 -84.5t13.5 -108.5q0 -177 -112.5 -287t-308.5 -129v-151h-121v149q-218 11 -327 120t-126 345zM289 1104q0 -110 66 -166t190 -88v512q-256 -25 -256 -258zM666 143q139 13 208.5 86.5t69.5 196.5q0 64 -21 111t-62.5 76.5t-86 46.5 t-108.5 32v-549z" />
<glyph unicode="%" horiz-adv-x="1658" d="M41 1100q0 182 97.5 292.5t267.5 110.5q167 0 250 -104t83 -285q0 -191 -89 -301.5t-265 -110.5q-173 0 -258.5 105.5t-85.5 292.5zM164 1104q0 -143 56.5 -222t172.5 -79q223 0 223 305q0 144 -51 218.5t-166 74.5q-117 0 -176 -78.5t-59 -218.5zM317 16l943 1526 l96 -53l-946 -1532zM920 373q0 182 97 292.5t267 110.5q167 0 250.5 -104t83.5 -285q0 -191 -89 -301.5t-265 -110.5q-173 0 -258.5 105.5t-85.5 292.5zM1042 377q0 -143 56.5 -222t173.5 -79q223 0 223 305q0 144 -51 218.5t-166 74.5q-117 0 -176.5 -78.5t-59.5 -218.5z " />
<glyph unicode="&#x26;" horiz-adv-x="1431" d="M102 356q0 159 83.5 276.5t254.5 223.5q-151 176 -151 344q0 67 22.5 125t65.5 104t112.5 72.5t157.5 26.5q158 0 251 -80t93 -217q0 -63 -22 -131l-135 20q14 38 14 99q0 86 -56.5 135t-156.5 49q-99 0 -149 -50.5t-50 -142.5q0 -142 160 -319l457 -502q112 192 118 477 l129 -18q-9 -171 -43.5 -300.5t-111.5 -256.5l205 -223l-105 -86l-192 204q-224 -211 -488 -211q-228 0 -345.5 105t-117.5 276zM252 381q0 -141 92.5 -211t230.5 -70q216 0 394 181l-453 489q-127 -83 -195.5 -174t-68.5 -215z" />
<glyph unicode="'" horiz-adv-x="440" d="M154 1503h133l-15 -436h-104z" />
<glyph unicode="(" horiz-adv-x="610" d="M113 674q0 261 79.5 480.5t239.5 455.5l82 -27q-134 -232 -197 -443t-63 -454q0 -485 256 -930l-82 -32q-154 225 -234.5 456t-80.5 494z" />
<glyph unicode=")" horiz-adv-x="610" d="M96 -250q134 232 197 443t63 454q0 485 -256 930l82 33q154 -226 235 -457.5t81 -493.5q0 -261 -80 -480t-240 -455z" />
<glyph unicode="*" horiz-adv-x="798" d="M72 1219l41 124l245 -108l-26 268h133l-31 -270l252 110l41 -124l-268 -50l182 -208l-106 -78l-138 231l-135 -231l-106 78l176 206z" />
<glyph unicode="+" horiz-adv-x="1187" d="M199 604v107h340v340h106v-340h342v-107h-342v-342h-106v342h-340z" />
<glyph unicode="," horiz-adv-x="358" d="M106 -233l60 233h-47v223h166v-198l-101 -281z" />
<glyph unicode="-" horiz-adv-x="718" d="M82 537v116h555v-116h-555z" />
<glyph unicode="." horiz-adv-x="421" d="M135 0v223h152v-223h-152z" />
<glyph unicode="/" horiz-adv-x="696" d="M-78 -150l727 1735l103 -37l-729 -1741z" />
<glyph unicode="0" horiz-adv-x="1312" d="M117 750q0 372 148 576t417 204q514 0 514 -752q0 -803 -547 -803q-273 0 -402.5 196.5t-129.5 578.5zM260 756q0 -658 402 -658q85 0 151.5 30.5t112 86.5t74.5 139.5t42 184t13 225.5q0 151 -20.5 266t-65 201t-118.5 131t-177 45q-207 0 -310.5 -173.5t-103.5 -477.5z " />
<glyph unicode="1" horiz-adv-x="645" d="M41 1311q151 68 301 194h98v-1505h-141v1315q-60 -57 -229 -125z" />
<glyph unicode="2" horiz-adv-x="1081" d="M125.5 1171q1.5 76 31.5 141.5t79.5 114t130 76t182.5 27.5q201 0 315.5 -108t114.5 -296q0 -93 -40.5 -179t-104.5 -153.5t-141 -132t-153 -126.5t-138 -124t-97.5 -137t-30.5 -155h682v-119h-829v51q0 36 6 111q10 91 53.5 173.5t105.5 146t135 123.5t144 117 t129.5 116t94.5 131.5t36 152.5t-25 137.5t-69 88.5t-94.5 45t-110.5 14q-319 0 -260 -385l-133 -10q-15 83 -13.5 159z" />
<glyph unicode="3" horiz-adv-x="1130" d="M94 442l139 11q6 -89 25 -151.5t56.5 -110t100 -70.5t152.5 -23q44 0 85 9t81.5 31.5t70 57t48 89.5t18.5 125q0 174 -103 247t-302 68l-10 113q393 0 393 303q0 135 -84 200.5t-225 65.5q-90 0 -150 -28.5t-88 -79.5t-36 -121t7 -154l-133 -12q-16 67 -13.5 131.5 t17 122t49 106t83 83.5t119 55t155.5 20q201 0 323.5 -97.5t122.5 -285.5q0 -142 -85.5 -233.5t-223.5 -122.5q83 -14 148 -52t104.5 -90.5t59.5 -112.5t20 -122q0 -207 -124 -323t-327 -116q-129 0 -220.5 35t-144 100.5t-77.5 146t-31 185.5z" />
<glyph unicode="4" horiz-adv-x="1118" d="M59 356v95l646 1052h147v-1024h203v-123h-203v-356h-139v356h-654zM211 479h502v824h-6z" />
<glyph unicode="5" horiz-adv-x="1138" d="M113 442l135 11q21 -183 95.5 -269t225.5 -86q133 0 220.5 94.5t87.5 290.5t-84.5 292.5t-229.5 96.5q-99 0 -180 -52.5t-127 -127.5l-100 13l43 798h762v-123h-642l-38 -526q55 62 135.5 101.5t177.5 39.5q198 0 314 -135.5t116 -374.5q0 -225 -122.5 -367.5 t-340.5 -142.5q-97 0 -172 25t-122.5 65.5t-80 103t-48.5 127t-25 146.5z" />
<glyph unicode="6" horiz-adv-x="1216" d="M154 672q0 858 532 858q91 0 160.5 -24.5t111 -64.5t66.5 -96t32.5 -115t2.5 -126l-133 -14q19 317 -246 317q-192 0 -280 -151.5t-107 -501.5q73 96 173.5 137t203.5 41q87 0 163 -29.5t134.5 -86t92.5 -146.5t34 -203q0 -223 -120.5 -357.5t-344.5 -134.5 q-170 0 -273 69.5t-152.5 222t-49.5 405.5zM299 502q0 -87 17.5 -157t55 -127t105 -88.5t160.5 -31.5q82 0 144 29t98 80t53.5 114.5t17.5 139.5q0 358 -321 358q-137 0 -233.5 -83t-96.5 -234z" />
<glyph unicode="7" horiz-adv-x="964" d="M88 1380v123h840v-102q-246 -317 -352.5 -653t-122.5 -748h-152q22 413 137 746.5t336 633.5h-686z" />
<glyph unicode="8" horiz-adv-x="1230" d="M123 408q0 150 66 248t202 155q-98 46 -154.5 132t-56.5 204q0 174 121.5 278.5t325.5 104.5q205 0 313.5 -101.5t108.5 -267.5q0 -119 -58 -208.5t-166 -133.5q283 -89 283 -389q0 -206 -126.5 -330.5t-377.5 -124.5q-245 0 -363 117t-118 316zM264 420q0 -144 81 -233 t257 -89q175 0 271 90.5t96 243.5q0 66 -19.5 122.5t-59.5 104t-110 74.5t-162 27q-175 0 -264.5 -93t-89.5 -247zM324 1145q0 -122 69.5 -197.5t218.5 -75.5q152 0 222.5 76.5t70.5 202.5q0 256 -287 256q-154 0 -224 -70.5t-70 -191.5z" />
<glyph unicode="9" horiz-adv-x="1216" d="M131 1026q0 225 121 364.5t344 139.5q243 0 359 -154.5t116 -505.5q0 -450 -122 -672.5t-390 -222.5q-91 0 -163 23.5t-118.5 62.5t-77 94.5t-43 116t-12.5 129.5l134 15q9 -173 76 -245.5t210 -72.5q186 0 267.5 158t99.5 496q-68 -94 -167 -136.5t-200 -42.5 q-88 0 -165 27.5t-137.5 81.5t-96 142.5t-35.5 201.5zM274 1044q0 -358 322 -358q66 0 124 20.5t104.5 60.5t74 107t27.5 152q0 82 -17.5 148t-55 120t-105 83.5t-160.5 29.5q-82 0 -144 -29t-98.5 -80t-54 -114.5t-17.5 -139.5z" />
<glyph unicode=":" horiz-adv-x="421" d="M137 0v223h148v-223h-148zM137 834v223h148v-223h-148z" />
<glyph unicode=";" horiz-adv-x="358" d="M106 -233l60 233h-47v223h166v-198l-101 -281zM133 834v223h152v-223h-152z" />
<glyph unicode="&#x3c;" horiz-adv-x="1187" d="M199 502v157l788 316v-123l-684 -268l684 -250v-121z" />
<glyph unicode="=" horiz-adv-x="1187" d="M199 436v107h788v-107h-788zM199 727v107h788v-107h-788z" />
<glyph unicode="&#x3e;" horiz-adv-x="1187" d="M199 213v123l684 268l-684 250v121l788 -289v-158z" />
<glyph unicode="?" horiz-adv-x="1062" d="M100 1090q1 69 12.5 129.5t39 119t70.5 99.5t111 66.5t156 25.5q202 0 311 -119t109 -330q0 -115 -29.5 -204t-84 -147t-124.5 -93t-157 -49l-10 -201h-131l-8 303q218 6 306.5 98t88.5 283q0 336 -273 336q-57 0 -100 -16.5t-70.5 -44t-45.5 -70.5t-25.5 -90t-9.5 -107z M356 0v223h152v-223h-152z" />
<glyph unicode="@" horiz-adv-x="1714" d="M102 381q0 231 99 409t279 275.5t413 97.5q154 0 284 -41t227.5 -120t152.5 -204.5t55 -285.5q0 -257 -101 -386.5t-264 -129.5q-150 0 -217 115q-45 -57 -114 -92t-158 -35q-142 0 -209.5 85t-67.5 234q0 72 13.5 142.5t44.5 137.5t76 117.5t112.5 81.5t149.5 31 q129 0 192 -102l25 90h112l-63 -512q-11 -94 18.5 -142.5t112.5 -48.5q90 0 147.5 94.5t57.5 288.5q0 568 -598 568q-193 0 -339.5 -85.5t-224 -236t-77.5 -342.5q0 -157 47 -276t133 -191.5t199.5 -108.5t254.5 -36q135 0 247 38t182 105l77 -86q-87 -87 -224 -130.5 t-298 -43.5q-164 0 -300.5 45t-239 133t-159.5 228t-57 319zM616 303q0 -104 39 -158.5t129 -54.5q83 0 151 52t81 153l33 254q11 85 -39.5 124.5t-126.5 39.5q-70 0 -123.5 -35t-83.5 -95t-45 -130.5t-15 -149.5z" />
<glyph unicode="A" horiz-adv-x="1265" d="M10 0l520 1503h201l524 -1503h-151l-154 438h-641l-149 -438h-150zM348 557h561l-282 813z" />
<glyph unicode="B" horiz-adv-x="1257" d="M195 0v1503h467q102 0 180 -18t127.5 -49t80.5 -77.5t43.5 -98t12.5 -115.5q0 -151 -86.5 -242.5t-222.5 -118.5v-4q358 -35 358 -362q0 -111 -39.5 -192.5t-113 -130.5t-171 -72t-221.5 -23h-415zM342 119h246q75 0 132 7t111.5 26.5t90 52t56.5 86t21 125.5 q0 156 -94.5 225.5t-271.5 69.5h-291v-592zM342 827h209q55 0 106.5 8.5t106 31t95 56.5t66 91.5t25.5 130.5q0 131 -79 185t-255 54h-274v-557z" />
<glyph unicode="C" horiz-adv-x="1296" d="M119 739q0 385 167 587t445 202q224 0 350 -148q116 -136 116 -356q0 -19 -1 -39l-135 -12q0 116 -26 200.5t-73.5 133t-108.5 71.5t-138 23q-93 0 -170.5 -38t-138 -115.5t-94 -205.5t-33.5 -297q0 -323 99.5 -484t311.5 -161q164 0 258.5 109t106.5 295l139 -12 q-18 -265 -154.5 -391t-357.5 -126q-284 0 -423.5 190t-139.5 574z" />
<glyph unicode="D" horiz-adv-x="1316" d="M193 0v1503h223q224 0 373.5 -41.5t241 -135.5t129.5 -232t38 -344q0 -204 -40.5 -343.5t-133.5 -231.5t-241 -133.5t-367 -41.5h-223zM340 119h98q171 0 285 33t187.5 110t105 197t31.5 299q0 130 -17.5 226.5t-58.5 174.5t-108.5 126t-168.5 73.5t-239 25.5h-115v-1265 z" />
<glyph unicode="E" horiz-adv-x="1128" d="M193 0v1503h784v-119h-637v-550h567v-119h-567v-596h690v-119h-837z" />
<glyph unicode="F" horiz-adv-x="1054" d="M193 0v1503h780v-119h-633v-567h551v-119h-551v-698h-147z" />
<glyph unicode="G" horiz-adv-x="1374" d="M119 715q0 403 164 608t444 205q226 0 349 -145q116 -136 116 -368v-30l-135 -12q0 115 -26.5 200t-74.5 133.5t-108.5 71.5t-134.5 23q-93 0 -169 -38t-135.5 -115t-92.5 -207.5t-33 -303.5q0 -637 401 -637q167 0 270 121t103 324v61h-365v129h500v-760h-125l-8 226 q-113 -226 -389 -226q-267 0 -409 188.5t-142 551.5z" />
<glyph unicode="H" horiz-adv-x="1396" d="M195 0v1503h147v-688h713v688h147v-1503h-147v692h-713v-692h-147z" />
<glyph unicode="I" horiz-adv-x="710" d="M123 0v119h158v1265h-158v119h465v-119h-164v-1265h164v-119h-465z" />
<glyph unicode="J" horiz-adv-x="1058" d="M72 410l137 18q3 -39 6 -66t10.5 -63t19 -61t31.5 -52t46 -43t65 -26.5t88 -10.5q135 0 193.5 77t58.5 241v1079h147v-1104q0 -93 -23 -168.5t-70 -133.5t-125.5 -90t-184.5 -32q-199 0 -295 109t-104 326z" />
<glyph unicode="K" horiz-adv-x="1216" d="M195 0v1503h147v-776l659 776h162l-540 -637l573 -866h-164l-506 752l-184 -217v-535h-147z" />
<glyph unicode="L" horiz-adv-x="1032" d="M195 0v1503h147v-1384h619v-119h-766z" />
<glyph unicode="M" horiz-adv-x="1712" d="M195 0v1503h225l436 -1335h6l441 1335h215v-1503h-138v1331h-4l-450 -1331h-140l-450 1333h-4v-1333h-137z" />
<glyph unicode="N" horiz-adv-x="1402" d="M195 0v1503h202l678 -1321v1321h133v-1503h-178l-700 1343v-1343h-135z" />
<glyph unicode="O" horiz-adv-x="1382" d="M119 750q0 371 160.5 575.5t445.5 204.5q272 0 405.5 -194.5t133.5 -557.5q0 -391 -144.5 -597t-435.5 -206q-285 0 -425 198t-140 577zM268 756q0 -656 428 -656q420 0 420 664q0 151 -22 265.5t-68.5 200t-124 129.5t-184.5 44q-148 0 -250 -81t-150.5 -224.5 t-48.5 -341.5z" />
<glyph unicode="P" horiz-adv-x="1214" d="M195 0v1503h450q112 0 196.5 -22.5t137 -60.5t85.5 -93.5t45.5 -114.5t12.5 -131q0 -49 -6 -94.5t-22 -96t-41.5 -93t-68.5 -82t-99 -67t-136.5 -44t-177.5 -16.5h-229v-588h-147zM342 709h225q208 0 304 92t96 276q0 162 -84 234.5t-273 72.5h-268v-675z" />
<glyph unicode="Q" horiz-adv-x="1382" d="M119 750q0 371 160.5 575.5t445.5 204.5q272 0 405.5 -194.5t133.5 -557.5q0 -563 -291 -733l155 -303l-104 -53l-197 301q-84 -15 -143 -15q-285 0 -425 198t-140 577zM268 756q0 -656 428 -656q420 0 420 664q0 151 -22 265.5t-68.5 200t-124 129.5t-184.5 44 q-148 0 -250 -81t-150.5 -224.5t-48.5 -341.5z" />
<glyph unicode="R" horiz-adv-x="1232" d="M195 0v1503h450q477 0 477 -391q0 -57 -8 -106t-30.5 -100.5t-58.5 -91.5t-97 -73t-142 -51l365 -690h-164l-354 672q-20 -2 -62 -2h-229v-670h-147zM342 791h225q216 0 308 70t92 247q0 148 -86.5 212t-270.5 64h-268v-593z" />
<glyph unicode="S" horiz-adv-x="1155" d="M66 440l143 23q9 -93 29 -155t60.5 -111t109 -72t170.5 -23q167 0 250 82.5t83 221.5q0 58 -17 103.5t-43.5 75t-69 52.5t-81.5 36.5t-94 26.5q-169 40 -224 60q-170 63 -227 188q-32 72 -32 170q0 192 127.5 303t333.5 111q218 0 335.5 -125.5t129.5 -341.5l-140 -16 q-12 178 -91 267t-238 89q-149 0 -228.5 -72t-79.5 -205q0 -65 20.5 -112.5t62 -78t85 -48.5t107.5 -35q21 -5 65 -16q61 -15 93 -23.5t88 -28t87 -38.5t71 -51.5t61 -70.5t36 -92.5t15 -119.5q0 -196 -133.5 -317.5t-356.5 -121.5q-243 0 -366 109t-141 356z" />
<glyph unicode="T" horiz-adv-x="1101" d="M37 1384v119h1028v-119h-440v-1384h-148v1384h-440z" />
<glyph unicode="U" horiz-adv-x="1425" d="M184 522v981h148v-958q0 -229 94 -337t289 -108q190 0 284.5 106.5t94.5 334.5v962h147v-983q0 -262 -138.5 -403.5t-397.5 -141.5q-521 0 -521 547z" />
<glyph unicode="V" horiz-adv-x="1216" d="M0 1503h154l458 -1378l457 1378h148l-510 -1503h-193z" />
<glyph unicode="W" horiz-adv-x="1839" d="M20 1503h154l315 -1374h9l331 1374h170l351 -1374h6l315 1374h148l-371 -1503h-193l-335 1325h-9l-319 -1325h-197z" />
<glyph unicode="X" horiz-adv-x="1179" d="M20 0l457 776l-440 727h162l374 -635l383 635h146l-443 -729l500 -774h-160l-434 664l-389 -664h-156z" />
<glyph unicode="Y" horiz-adv-x="1116" d="M0 1503h168l387 -776l406 776h155l-485 -917v-586h-148v573z" />
<glyph unicode="Z" horiz-adv-x="1095" d="M70 0v111l792 1273h-764v119h924v-112l-799 -1272h797v-119h-950z" />
<glyph unicode="[" horiz-adv-x="575" d="M141 -270v1874h359v-101l-221 -4v-1663l225 -6v-100h-363z" />
<glyph unicode="\" horiz-adv-x="608" d="M-51 1552l102 35l660 -1743l-101 -39z" />
<glyph unicode="]" horiz-adv-x="575" d="M72 -170l225 6v1663l-221 4v101h358v-1874h-362v100z" />
<glyph unicode="^" horiz-adv-x="901" d="M76 776l346 770h96l307 -770l-100 -35l-256 639h-4l-289 -639z" />
<glyph unicode="_" horiz-adv-x="901" d="M0 -113h901v-110h-901v110z" />
<glyph unicode="`" d="M289 1448l100 86l250 -309l-59 -56z" />
<glyph unicode="a" horiz-adv-x="1107" d="M115 258q0 60 18 108t47.5 81.5t79.5 58.5t100.5 40t124 25.5t137.5 14.5t154 8v59q0 90 -20.5 153t-58 96t-81.5 47t-100 14q-64 0 -109.5 -10t-71 -31t-39.5 -44q-14 -24 -17 -60q-2 -24 -2 -45q1 -10 1 -20q2 -29 6 -74q1 -5 1 -7l-119 -10q-14 55 -14 105q0 29 4 57 q14 74 54.5 129t122 86.5t195.5 31.5q96 0 165.5 -26.5t110 -69.5t64.5 -111t31.5 -137.5t7.5 -163.5v-389q0 -63 27 -81q15 -10 42 -10q23 0 54 7v-90q-50 -10 -89 -10q-2 0 -4 -1q-37 0 -61 9q-26 9 -42.5 22t-26 36t-14 43.5t-7.5 50.5q-44 -81 -132 -128t-205 -47 q-163 0 -248.5 83t-85.5 200zM256 272q0 -90 55.5 -140t171.5 -50q119 0 206 81.5t87 207.5v116q-131 -2 -224.5 -13t-150.5 -28t-89.5 -44.5t-44 -57.5t-11.5 -72z" />
<glyph unicode="b" horiz-adv-x="1136" d="M156 0v1503h133v-606q43 69 129 121.5t207 52.5q65 0 121.5 -15t110.5 -53t92.5 -96.5t61.5 -152.5t23 -215q0 -270 -113.5 -417t-330.5 -147q-196 0 -305 150h-6l-46 -125h-77zM281 516q0 -434 297 -434q157 0 237 117t80 342q0 226 -75.5 324t-215.5 98 q-323 0 -323 -447z" />
<glyph unicode="c" horiz-adv-x="1036" d="M102 506q0 266 125 415.5t348 149.5q98 0 173 -30t119.5 -83t67.5 -117.5t26 -140.5l-119 -8q-12 132 -84 201.5t-193 69.5q-155 0 -239 -114t-84 -335q0 -202 77 -314t238 -112q129 0 194 64.5t83 193.5l116 -10q-21 -189 -127.5 -275t-273.5 -86q-119 0 -207.5 41 t-139.5 115t-75.5 167t-24.5 208z" />
<glyph unicode="d" horiz-adv-x="1136" d="M102 506q0 273 117 419t328 146q200 0 303 -151v583h131v-1503h-98l-25 152h-4q-48 -86 -134.5 -131.5t-187.5 -45.5q-200 0 -315 128t-115 403zM242 504q0 -223 77 -322.5t220 -99.5q319 0 319 450q0 431 -299 431q-154 0 -235.5 -115t-81.5 -344z" />
<glyph unicode="e" horiz-adv-x="1058" d="M102 514q0 256 121.5 406.5t349.5 150.5q207 0 305 -150q76 -116 76 -306q0 -56 -6 -119h-706q0 -87 15.5 -157.5t50 -129t97 -91t150.5 -32.5q249 0 281 254l110 -12q-7 -69 -28.5 -125.5t-52.5 -94t-68 -64.5t-79.5 -41.5t-82 -21t-80.5 -6.5q-453 0 -453 539zM242 602 h587v20q1 68 -11 124q-14 64 -45.5 113.5t-87 76.5t-132.5 27q-78 0 -139 -30.5t-97 -82.5t-54.5 -114.5t-20.5 -133.5z" />
<glyph unicode="f" horiz-adv-x="606" d="M57 936v111h129v108q0 87 11.5 149t42.5 116t91 81t150 27q69 0 156 -25l-12 -106q-75 22 -144 22q-91 0 -126.5 -59t-35.5 -182v-131h259v-111h-259v-936h-133v936h-129z" />
<glyph unicode="g" horiz-adv-x="1136" d="M102 506q0 276 120 420.5t327 144.5q114 0 185.5 -40t119.5 -111h4l41 127h82v-1008q0 -207 -109.5 -322.5t-336.5 -115.5q-68 0 -128 13.5t-112 42t-89.5 78t-53.5 115.5l114 35q20 -57 48.5 -92.5t84 -58.5t138.5 -23q165 0 239 78.5t74 255.5v125h-4 q-42 -78 -123.5 -126t-202.5 -48q-88 0 -161.5 28.5t-132 87t-91.5 159t-33 235.5zM242 508q0 -212 76 -308t219 -96q150 0 233.5 103t83.5 323q0 433 -293 433q-67 0 -122 -23t-100.5 -74t-71 -142t-25.5 -216z" />
<glyph unicode="h" horiz-adv-x="1140" d="M156 0v1503h135v-616q26 41 52 70t64.5 57t93 42.5t122.5 14.5q366 0 366 -446v-625h-135v608q0 52 -4 93.5t-19 92t-40.5 84.5t-73.5 57t-113 23q-87 0 -150.5 -29.5t-97.5 -81.5t-49.5 -113t-15.5 -134v-600h-135z" />
<glyph unicode="i" horiz-adv-x="446" d="M156 0v1047h135v-1047h-135zM156 1300v203h135v-203h-135z" />
<glyph unicode="j" horiz-adv-x="452" d="M-113 -379l17 105q70 -17 119 -17q76 0 108.5 58t32.5 182v1098h133v-1078q0 -71 -7 -124.5t-26 -101t-50 -77.5t-80 -47.5t-116 -17.5q-66 0 -131 20zM164 1300v203h133v-203h-133z" />
<glyph unicode="k" horiz-adv-x="989" d="M156 0v1503h135v-934l463 478h161l-364 -371l407 -676h-153l-348 586l-166 -168v-418h-135z" />
<glyph unicode="l" horiz-adv-x="446" d="M156 0v1503h135v-1503h-135z" />
<glyph unicode="m" horiz-adv-x="1757" d="M156 0v1047h127l8 -160q96 184 303 184q75 0 132.5 -18t93.5 -51.5t57 -69t36 -80.5q58 114 139.5 166.5t204.5 52.5q79 0 140.5 -23t109.5 -74t73.5 -140.5t25.5 -215.5v-618h-136v608q0 86 -12.5 149.5t-33.5 101.5t-52.5 60.5t-64 30.5t-74.5 8q-125 0 -205 -86.5 t-80 -269.5v-602h-135v608q0 102 -16.5 172.5t-49 108.5t-72.5 53.5t-95 15.5q-136 0 -212.5 -92t-76.5 -264v-602h-135z" />
<glyph unicode="n" horiz-adv-x="1140" d="M156 0v1047h127l8 -160q99 184 325 184q373 0 373 -444v-627h-135v608q0 184 -61.5 267t-192.5 83q-71 0 -126 -21t-88.5 -54.5t-55.5 -81t-30.5 -96t-8.5 -103.5v-602h-135z" />
<glyph unicode="o" horiz-adv-x="1118" d="M102 524q0 261 132.5 404t343.5 143q210 0 324 -135.5t114 -390.5q0 -279 -119.5 -424.5t-341.5 -145.5q-453 0 -453 549zM242 526q0 -96 17 -173t53 -138.5t99 -95t150 -33.5q84 0 146.5 34.5t99.5 96t54.5 140.5t17.5 175q0 126 -30 218.5t-102 150t-182 57.5 q-83 0 -146 -33.5t-101 -93t-57 -136.5t-19 -169z" />
<glyph unicode="p" horiz-adv-x="1138" d="M156 -375v1422h104l23 -146h6q62 85 144 127.5t198 42.5q83 0 155 -31.5t128.5 -92.5t89 -162t32.5 -230q0 -126 -24 -226.5t-65 -165.5t-98.5 -108.5t-120.5 -61.5t-134 -18q-102 0 -181 40t-120 106h-4v-496h-133zM281 532q0 -127 23 -217t65.5 -139.5t95.5 -71.5 t121 -22q155 0 232 121t77 348q0 216 -77 314t-206 98q-160 0 -245.5 -99t-85.5 -332z" />
<glyph unicode="q" horiz-adv-x="1136" d="M102 506q0 150 35.5 262t99 176.5t142.5 95.5t174 31q198 0 301 -151h6l41 127h80v-1422h-131v520h-4q-48 -75 -130 -122.5t-198 -47.5q-69 0 -128.5 16t-113.5 55t-91.5 98.5t-60 152t-22.5 209.5zM242 500q0 -418 286 -418q74 0 131.5 22.5t103.5 73t70.5 141.5 t24.5 220q0 213 -77 318.5t-222 105.5q-148 0 -232.5 -110.5t-84.5 -352.5z" />
<glyph unicode="r" horiz-adv-x="851" d="M156 0v1047h127l10 -154q87 178 282 178q129 0 192 -83q44 -58 44 -160q0 -44 -8 -95l-121 -6q4 40 4 73q0 42 -6 70q-12 52 -43 70t-86 18q-67 0 -118.5 -30t-81.5 -83t-45 -117.5t-15 -139.5v-588h-135z" />
<glyph unicode="s" horiz-adv-x="960" d="M84 301l121 23q7 -60 21.5 -100.5t43.5 -73t77.5 -47.5t119.5 -15q137 0 202.5 53.5t65.5 141.5q0 65 -33.5 106t-87 59.5t-118 30.5t-129 28t-118 42.5t-87 83t-33.5 141.5q0 142 100 219.5t263 77.5q173 0 263 -83t99 -238l-117 -19q-12 117 -68.5 172t-174.5 55 q-238 0 -238 -174q0 -49 21 -83t56 -52.5t81 -31t96.5 -21.5t101 -20.5t96.5 -32t81 -50.5t56 -82t21 -122q0 -141 -109.5 -227.5t-295.5 -86.5q-177 0 -268.5 79.5t-108.5 246.5z" />
<glyph unicode="t" horiz-adv-x="665" d="M57 936v111h129v231l133 49v-280h259v-111h-259v-617q0 -124 32.5 -178.5t121.5 -54.5q69 0 137 20l15 -106q-73 -25 -174 -25q-82 0 -136.5 24t-81.5 72.5t-37 103.5t-10 136v625h-129z" />
<glyph unicode="u" horiz-adv-x="1103" d="M147 420v627h136v-617q0 -181 59.5 -261.5t177.5 -80.5q82 0 141 33t91 90t46.5 121.5t14.5 140.5v574h135v-1047h-123l-12 160q-21 -35 -42 -61t-57.5 -57.5t-90 -49t-119.5 -17.5q-357 0 -357 445z" />
<glyph unicode="v" horiz-adv-x="909" d="M20 1047h140l297 -877l293 877h139l-377 -1047h-119z" />
<glyph unicode="w" horiz-adv-x="1544" d="M31 1047h139l262 -865l266 865h148l270 -865l258 865h139l-339 -1047h-125l-277 897l-280 -897h-125z" />
<glyph unicode="x" horiz-adv-x="950" d="M33 0l352 537l-340 510h154l264 -410l268 410h141l-333 -502l379 -545h-156l-301 440l-287 -440h-141z" />
<glyph unicode="y" horiz-adv-x="892" d="M23 -379l18 103q70 -17 100 -17q85 0 128.5 58.5t97.5 218.5l8 24l-352 1039h141l282 -879l293 879h140l-379 -1057q-42 -118 -73.5 -186.5t-72.5 -117.5t-89 -67t-118 -18q-72 0 -124 20z" />
<glyph unicode="z" horiz-adv-x="858" d="M51 0v111l596 819h-567v117h727v-111l-602 -817h600v-119h-754z" />
<glyph unicode="{" horiz-adv-x="718" d="M68 612v78q100 13 150 67t50 136v403q0 117 27.5 179.5t96.5 92.5t200 34l10 -60q-118 -28 -160.5 -63t-42.5 -105v-430q0 -43 -1 -67t-6 -57t-15.5 -53t-28.5 -42.5t-46.5 -38t-68.5 -27.5v-4q45 -8 76 -24t49.5 -36t28.5 -52.5t13 -64t3 -79.5v-436q0 -70 41 -105.5 t160 -62.5l-10 -59q-169 3 -247.5 62.5t-78.5 209.5v420q0 74 -51 128.5t-149 55.5z" />
<glyph unicode="|" horiz-adv-x="499" d="M195 -492v2048h110v-2048h-110z" />
<glyph unicode="}" horiz-adv-x="718" d="M115 -205q119 27 159.5 62.5t40.5 105.5v436q0 48 3 79.5t13 64t28.5 52.5t49.5 36t76 24v4q-40 12 -68.5 27.5t-46.5 38t-28.5 42.5t-15.5 53t-6 57t-1 67v430q0 70 -42.5 105t-159.5 63l10 60q131 -4 200 -34t96.5 -92.5t27.5 -179.5v-403q0 -82 50 -136t150 -67v-78 q-98 -1 -149 -55.5t-51 -128.5v-420q0 -150 -78.5 -209.5t-247.5 -62.5z" />
<glyph unicode="~" d="M100 518q101 176 230 176q76 0 196 -53q125 -53 170 -53q84 0 158 119l72 -64q-39 -70 -97.5 -118t-128.5 -48q-71 0 -198 53q-125 52 -168 52q-29 0 -52 -9.5t-44.5 -33t-32.5 -38.5t-33 -48z" />
<glyph unicode="&#xa1;" horiz-adv-x="569" d="M205 -436l12 1087h135l13 -1087h-160zM211 844v223h151v-223h-151z" />
<glyph unicode="&#xa2;" horiz-adv-x="1036" d="M102 694q0 242 105 389t295 172v170h114v-168q88 -6 153.5 -38t104.5 -83.5t59 -113t23 -133.5l-114 -8q-10 117 -69 184.5t-157 81.5v-871q98 12 151.5 75.5t68.5 180.5l110 -8q-19 -168 -106.5 -254t-223.5 -102v-168h-114v166q-107 7 -185.5 50.5t-124.5 116 t-68 162.5t-22 199zM242 702q0 -379 260 -423v866q-125 -22 -192.5 -134t-67.5 -309z" />
<glyph unicode="&#xa3;" horiz-adv-x="1009" d="M55 690v111h150q-56 81 -87.5 155.5t-31.5 167.5q0 177 124.5 291.5t334.5 114.5q223 0 327.5 -139t63.5 -375l-129 10q24 209 -47.5 296t-229.5 87q-140 0 -222.5 -72t-82.5 -204q0 -63 22.5 -128.5t43.5 -101t65 -102.5h412v-111h-342q47 -92 47 -166 q0 -96 -49.5 -183.5t-175.5 -221.5h692v-119h-842v119q134 142 189 227t55 164q0 81 -61 180h-226z" />
<glyph unicode="&#xa5;" horiz-adv-x="1034" d="M0 1503h168l346 -674l365 674h155l-391 -692h178v-111h-231v-149h231v-111h-231v-440h-148v440h-258v111h258v149h-258v111h197z" />
<glyph unicode="&#xa6;" horiz-adv-x="499" d="M195 420h110v-912h-110v912zM195 645v911h110v-911h-110z" />
<glyph unicode="&#xa7;" horiz-adv-x="1259" d="M123 571q0 88 53 161.5t170 141.5q-143 98 -143 269q0 117 63.5 200t166.5 121.5t233 38.5q201 0 319 -96.5t127 -269.5l-133 -19q-37 266 -317 266q-149 0 -229.5 -63t-80.5 -164q0 -78 43.5 -131t112.5 -80.5t152.5 -48t167.5 -43t153 -54.5t112.5 -94t43.5 -151 q0 -93 -55 -173t-156 -138q137 -91 137 -264q0 -88 -36.5 -157.5t-100 -112.5t-145 -65t-175.5 -22q-212 0 -336 95t-139 264l135 20q31 -256 338 -256q150 0 230.5 61.5t80.5 167.5q0 63 -27 108.5t-73 71.5t-105.5 44.5t-125 31.5t-131 27.5t-125 37.5t-105.5 56t-73 88.5 t-27 130.5zM270 582q0 -61 31.5 -103t91.5 -66.5t120.5 -39.5t147 -34.5t142.5 -39.5q188 101 188 250q0 58 -31.5 98t-91.5 63.5t-121 37.5t-146.5 33.5t-141.5 39.5q-189 -110 -189 -239z" />
<glyph unicode="&#xa8;" d="M279 1262v182h143v-182h-143zM602 1262v182h143v-182h-143z" />
<glyph unicode="&#xa9;" horiz-adv-x="1650" d="M113 645q0 220 96 385t257 249.5t363 84.5q329 0 519 -186.5t190 -501.5q0 -324 -197 -522.5t-518 -198.5q-175 0 -311.5 52.5t-223 146t-131 218.5t-44.5 273zM244 647q0 -272 154 -426.5t431 -154.5q273 0 427.5 161t154.5 443q0 277 -159 430t-423 153 q-262 0 -423.5 -162t-161.5 -444zM475 662q0 186 96 300.5t271 114.5q125 0 206.5 -66.5t88.5 -205.5l-105 -17q-9 96 -54 142.5t-136 46.5q-113 0 -179.5 -76.5t-66.5 -238.5q0 -84 23 -151t77.5 -111t132.5 -44q102 0 152.5 50t69.5 143l98 -17q-10 -78 -42.5 -135 t-78.5 -86.5t-93.5 -43t-98.5 -13.5q-93 0 -164 31t-113 87t-63 128.5t-21 161.5z" />
<glyph unicode="&#xaa;" horiz-adv-x="737" d="M68 1024q0 52 22 90t56 60.5t91.5 37.5t113 21t136.5 10v27q0 95 -39.5 132.5t-111.5 37.5q-68 0 -99.5 -20.5t-32.5 -54t3 -77.5l-107 -10q-27 113 35 182.5t211 69.5q65 0 112 -15.5t74.5 -41t44 -66t22 -82.5t5.5 -98v-244q0 -36 17 -47t61 -2v-76q-97 -20 -134.5 3.5 t-47.5 84.5q-58 -104 -221 -104q-106 0 -158.5 52.5t-52.5 129.5zM193 1034q0 -49 31 -77.5t89 -28.5q71 0 122.5 45t51.5 114v74q-93 -4 -153.5 -14t-90 -27.5t-40 -37t-10.5 -48.5z" />
<glyph unicode="&#xab;" horiz-adv-x="829" d="M82 514l258 391l86 -39l-203 -346l205 -368l-86 -43zM381 514l258 391l86 -39l-203 -346l205 -368l-86 -43z" />
<glyph unicode="&#xac;" horiz-adv-x="1187" d="M199 604v107h788v-367h-117v260h-671z" />
<glyph unicode="&#xad;" horiz-adv-x="851" d="M133 582v110h586v-110h-586z" />
<glyph unicode="&#xae;" horiz-adv-x="915" d="M82 1126q0 171 108 274t269 103q173 0 274 -98.5t101 -263.5q0 -167 -105 -271t-272 -104q-180 0 -277.5 100t-97.5 260zM164 1128q0 -135 79 -211.5t216 -76.5t216 79t79 216q0 141 -81.5 218t-213.5 77q-128 0 -211.5 -81.5t-83.5 -220.5zM336 944v391h135 q131 0 131 -110q0 -74 -70 -103l105 -178h-78l-92 156h-57v-156h-74zM410 1157h26q43 0 66.5 14t23.5 52q0 32 -18.5 43.5t-56.5 11.5h-41v-121z" />
<glyph unicode="&#xaf;" d="M238 1286v111h546v-111h-546z" />
<glyph unicode="&#xb0;" horiz-adv-x="614" d="M82 1292q0 104 67 164t164 60q102 0 160.5 -55.5t58.5 -155.5q0 -106 -62.5 -166t-166.5 -60t-162.5 57t-58.5 156zM174 1296q0 -69 36.5 -102t98.5 -33q56 0 92.5 34.5t36.5 102.5t-36 102t-91 34q-59 0 -98 -35.5t-39 -102.5z" />
<glyph unicode="&#xb1;" horiz-adv-x="1187" d="M199 0v106h788v-106h-788zM199 604v107h340v340h106v-340h342v-107h-342v-342h-106v342h-340z" />
<glyph unicode="&#xb2;" horiz-adv-x="763" d="M104 799q0 71 7 125q8 61 45 117.5t86 97.5t104 85t101.5 82t77 87.5t30.5 101.5q0 80 -49 116t-123 36q-54 0 -89.5 -17.5t-49.5 -47.5t-17 -70t6 -85l-118 -8q-33 140 37.5 234t240.5 94q136 0 213.5 -66.5t77.5 -183.5q0 -57 -25 -109.5t-64.5 -93t-87 -79t-95 -74.5 t-86.5 -72t-62.5 -78.5t-21.5 -87.5h426v-104h-564z" />
<glyph unicode="&#xb3;" horiz-adv-x="784" d="M76 1073l123 8q8 -102 50.5 -150t143.5 -48q72 0 124 42t52 130q0 99 -65 139t-191 37l-10 96q121 2 184.5 42t63.5 132q0 75 -47.5 110.5t-128.5 35.5q-102 0 -137 -55t-17 -162l-119 -11q-10 53 -9 101t21.5 89.5t54 72t88 48t124.5 17.5q137 0 219 -60.5t82 -175.5 q0 -89 -55 -145t-146 -78q105 -19 161 -83.5t56 -147.5q0 -129 -84 -201t-223 -72q-165 0 -237 75t-78 214z" />
<glyph unicode="&#xb4;" d="M385 1225l250 309l100 -86l-291 -279z" />
<glyph unicode="&#xb5;" horiz-adv-x="1292" d="M246 -360v1404h127v-657q0 -159 41.5 -229t156.5 -70q153 0 251 106.5t98 301.5v548h127v-1044h-113l-27 172q-61 -89 -140 -142t-192 -53q-142 0 -213 68l-6 -6l15 -399h-125z" />
<glyph unicode="&#xb6;" horiz-adv-x="1286" d="M113 1020q0 76 16.5 144t55 131t97 108.5t148.5 72.5t203 27h131v-1792h-137v797h-23q-104 0 -188 27.5t-140 75t-93 113.5t-53.5 139.5t-16.5 156.5zM954 -287v1790h138v-1790h-138z" />
<glyph unicode="&#xb7;" horiz-adv-x="421" d="M135 565v223h152v-223h-152z" />
<glyph unicode="&#xb8;" d="M338 -330l65 54q51 -66 123 -66q101 0 101 84q0 43 -25 64.5t-67 21.5q-30 0 -64 -21l-49 25l67 168h93l-50 -109q29 13 60 13q69 0 113.5 -42.5t44.5 -115.5q0 -86 -63 -133t-157 -47q-53 0 -105.5 24.5t-86.5 79.5z" />
<glyph unicode="&#xb9;" horiz-adv-x="499" d="M33 1597q47 17 115.5 56.5t119.5 79.5h84v-934h-127v774q-86 -51 -166 -78z" />
<glyph unicode="&#xba;" horiz-adv-x="774" d="M78 1186q0 165 89.5 254.5t231.5 89.5q141 0 219 -85.5t78 -246.5q0 -176 -81.5 -266t-231.5 -90q-305 0 -305 344zM199 1186q0 -120 42.5 -186t145.5 -66q188 0 188 256q0 115 -44.5 181.5t-139.5 66.5q-96 0 -144 -69t-48 -183z" />
<glyph unicode="&#xbb;" horiz-adv-x="829" d="M102 152l205 368l-203 346l86 39l259 -391l-261 -405zM401 152l205 368l-203 346l86 39l259 -391l-261 -405z" />
<glyph unicode="&#xbc;" horiz-adv-x="1966" d="M154 1368q48 17 116.5 56.5t118.5 78.5h84v-934h-127v774q-82 -48 -166 -77zM336 16l942 1526l96 -53l-946 -1532zM993 197v84l406 651h141v-629h125v-106h-125v-197h-125v197h-422zM1118 303h297v469h-4z" />
<glyph unicode="&#xbd;" horiz-adv-x="1966" d="M158 1368q48 17 116.5 56.5t118.5 78.5h84v-934h-127v774q-82 -48 -166 -77zM344 16l942 1526l96 -53l-946 -1532zM1139 0h563v104h-426q-2 45 21.5 87.5t62.5 78.5t86.5 72t95 74.5t87 79t64.5 93t25 109.5q0 117 -77.5 183.5t-213.5 66.5q-170 0 -240.5 -93.5 t-37.5 -233.5l119 8q-8 61 -3.5 109.5t43 79t109.5 30.5q74 0 123 -36t49 -116q0 -52 -30.5 -101.5t-77 -87.5t-101.5 -82t-104 -85t-86 -97.5t-45 -117.5q-6 -46 -6 -125z" />
<glyph unicode="&#xbe;" horiz-adv-x="1966" d="M115 844q6 -139 78 -214t237 -75q140 0 223.5 71.5t83.5 200.5q0 83 -56 148t-161 84q91 22 146 78t55 145q0 115 -82 175.5t-219 60.5q-70 0 -124.5 -17.5t-88 -48t-54 -72t-21.5 -89.5t9 -101l119 10q-18 107 17 162t137 55q81 0 128.5 -35.5t47.5 -109.5 q0 -92 -63.5 -132t-184.5 -42l10 -97q126 3 191 -37t65 -139q0 -88 -52 -130t-124 -42q-101 0 -143.5 48t-50.5 151zM489 16l943 1526l96 -53l-946 -1532zM1122 197v84l406 651h141v-629h125v-106h-125v-197h-125v197h-422zM1247 303h297v469h-4z" />
<glyph unicode="&#xbf;" horiz-adv-x="1062" d="M154 -14q0 -212 108.5 -330.5t310.5 -118.5q88 0 156.5 25.5t111 66.5t70.5 99.5t39.5 119t12.5 129.5l-136 11q-2 -60 -9.5 -107.5t-25.5 -90t-45.5 -70.5t-71 -44t-100.5 -16q-272 0 -272 336q0 191 88.5 283t306.5 98l-8 303h-131l-10 -201q-87 -14 -157 -49 t-124.5 -93t-84 -147t-29.5 -204zM555 844v223h152v-223h-152z" />
<glyph unicode="&#xc0;" horiz-adv-x="1265" d="M10 0l520 1503h201l524 -1503h-151l-154 438h-641l-149 -438h-150zM348 557h561l-282 813zM385 1753l74 115l329 -226l-43 -75z" />
<glyph unicode="&#xc1;" horiz-adv-x="1265" d="M10 0l520 1503h201l524 -1503h-151l-154 438h-641l-149 -438h-150zM348 557h561l-282 813zM463 1642l330 226l71 -115l-360 -186z" />
<glyph unicode="&#xc2;" horiz-adv-x="1265" d="M10 0l520 1503h201l524 -1503h-151l-154 438h-641l-149 -438h-150zM332 1628l252 240h86l252 -240l-48 -61l-247 170l-248 -170zM348 557h561l-282 813z" />
<glyph unicode="&#xc3;" horiz-adv-x="1265" d="M10 0l520 1503h201l524 -1503h-151l-154 438h-641l-149 -438h-150zM348 557h561l-282 813zM352 1618q21 100 63 138t87 38q49 0 135 -32.5t117 -32.5q25 0 42.5 20t32.5 68l86 -15q-42 -180 -149 -180q-54 0 -139 33t-115 33q-51 0 -72 -82z" />
<glyph unicode="&#xc4;" horiz-adv-x="1265" d="M10 0l520 1503h201l524 -1503h-151l-154 438h-641l-149 -438h-150zM348 557h561l-282 813zM385 1610v182h143v-182h-143zM709 1610v182h143v-182h-143z" />
<glyph unicode="&#xc5;" horiz-adv-x="1265" d="M10 0l520 1503h201l524 -1503h-151l-154 438h-641l-149 -438h-150zM348 557h561l-282 813zM434 1735q0 79 60 126.5t139 47.5q84 0 136 -45t52 -123q0 -84 -53 -133t-143 -49q-93 0 -142 47t-49 129zM535 1735q0 -97 94 -97q90 0 90 99q0 94 -88 94q-44 0 -70 -23.5 t-26 -72.5z" />
<glyph unicode="&#xc6;" horiz-adv-x="1832" d="M10 0l561 1503h1110v-119h-637v-571h568v-119h-568v-575h691v-119h-838v694h-485l-252 -694h-150zM455 813h442v571h-233z" />
<glyph unicode="&#xc7;" horiz-adv-x="1296" d="M119 739q0 385 167 587t445 202q224 0 350 -147.5t115 -395.5l-135 -12q0 116 -26 200.5t-73.5 133t-108.5 71.5t-138 23q-93 0 -170.5 -38t-138 -115.5t-94 -205.5t-33.5 -297q0 -323 99.5 -484t311.5 -161q164 0 258.5 109t106.5 295l139 -12q-17 -249 -138.5 -375 t-320.5 -140l-39 -86q29 13 60 13q69 0 113 -42.5t44 -115.5q0 -87 -63 -133.5t-156 -46.5q-53 0 -105.5 24.5t-86.5 79.5l65 54q51 -66 123 -66q101 0 101 84q0 43 -25.5 64.5t-67.5 21.5q-29 0 -63 -21l-49 25l57 145q-264 12 -394 201t-130 561z" />
<glyph unicode="&#xc8;" horiz-adv-x="1128" d="M193 0v1503h784v-119h-637v-550h567v-119h-567v-596h690v-119h-837zM350 1753l74 115l330 -226l-43 -75z" />
<glyph unicode="&#xc9;" horiz-adv-x="1128" d="M193 0v1503h784v-119h-637v-550h567v-119h-567v-596h690v-119h-837zM424 1642l330 226l71 -115l-360 -186z" />
<glyph unicode="&#xca;" horiz-adv-x="1128" d="M193 0v1503h784v-119h-637v-550h567v-119h-567v-596h690v-119h-837zM295 1628l252 240h86l252 -240l-47 -61l-248 170l-248 -170z" />
<glyph unicode="&#xcb;" horiz-adv-x="1128" d="M193 0v1503h784v-119h-637v-550h567v-119h-567v-596h690v-119h-837zM354 1610v182h144v-182h-144zM678 1610v182h143v-182h-143z" />
<glyph unicode="&#xcc;" horiz-adv-x="710" d="M119 1753l74 115l329 -226l-43 -75zM123 0v119h158v1265h-158v119h465v-119h-164v-1265h164v-119h-465z" />
<glyph unicode="&#xcd;" horiz-adv-x="710" d="M123 0v119h158v1265h-158v119h465v-119h-164v-1265h164v-119h-465zM182 1642l330 226l72 -115l-361 -186z" />
<glyph unicode="&#xce;" horiz-adv-x="710" d="M61 1628l252 240h86l252 -240l-47 -61l-248 170l-247 -170zM123 0v119h158v1265h-158v119h465v-119h-164v-1265h164v-119h-465z" />
<glyph unicode="&#xcf;" horiz-adv-x="710" d="M123 0v119h158v1265h-158v119h465v-119h-164v-1265h164v-119h-465zM123 1610v182h143v-182h-143zM446 1610v182h144v-182h-144z" />
<glyph unicode="&#xd0;" horiz-adv-x="1316" d="M51 698v117h142v688h223q224 0 373.5 -41.5t241 -135.5t129.5 -232t38 -344q0 -204 -40.5 -343.5t-133.5 -231.5t-241 -133.5t-367 -41.5h-223v698h-142zM340 119h98q171 0 285 33t187.5 110t105 197t31.5 299q0 130 -17.5 226.5t-58.5 174.5t-108.5 126t-168.5 73.5 t-239 25.5h-115v-569h434v-117h-434v-579z" />
<glyph unicode="&#xd1;" horiz-adv-x="1402" d="M195 0v1503h202l678 -1321v1321h133v-1503h-178l-700 1343v-1343h-135zM420 1618q21 100 62.5 138t86.5 38q49 0 135 -32.5t117 -32.5q26 0 43.5 20t32.5 68l86 -15q-42 -180 -149 -180q-54 0 -139 33t-115 33q-51 0 -72 -82z" />
<glyph unicode="&#xd2;" horiz-adv-x="1382" d="M119 750q0 371 160.5 575.5t445.5 204.5q272 0 405.5 -194.5t133.5 -557.5q0 -391 -144.5 -597t-435.5 -206q-285 0 -425 198t-140 577zM268 756q0 -656 428 -656q420 0 420 664q0 151 -22 265.5t-68.5 200t-124 129.5t-184.5 44q-148 0 -250 -81t-150.5 -224.5 t-48.5 -341.5zM483 1753l74 115l330 -226l-43 -75z" />
<glyph unicode="&#xd3;" horiz-adv-x="1382" d="M119 750q0 371 160.5 575.5t445.5 204.5q272 0 405.5 -194.5t133.5 -557.5q0 -391 -144.5 -597t-435.5 -206q-285 0 -425 198t-140 577zM268 756q0 -656 428 -656q420 0 420 664q0 151 -22 265.5t-68.5 200t-124 129.5t-184.5 44q-148 0 -250 -81t-150.5 -224.5 t-48.5 -341.5zM557 1642l330 226l71 -115l-360 -186z" />
<glyph unicode="&#xd4;" horiz-adv-x="1382" d="M119 750q0 371 160.5 575.5t445.5 204.5q272 0 405.5 -194.5t133.5 -557.5q0 -391 -144.5 -597t-435.5 -206q-285 0 -425 198t-140 577zM268 756q0 -656 428 -656q420 0 420 664q0 151 -22 265.5t-68.5 200t-124 129.5t-184.5 44q-148 0 -250 -81t-150.5 -224.5 t-48.5 -341.5zM426 1628l252 240h86l252 -240l-47 -61l-248 170l-248 -170z" />
<glyph unicode="&#xd5;" horiz-adv-x="1382" d="M119 750q0 371 160.5 575.5t445.5 204.5q272 0 405.5 -194.5t133.5 -557.5q0 -391 -144.5 -597t-435.5 -206q-285 0 -425 198t-140 577zM268 756q0 -656 428 -656q420 0 420 664q0 151 -22 265.5t-68.5 200t-124 129.5t-184.5 44q-148 0 -250 -81t-150.5 -224.5 t-48.5 -341.5zM440 1618q21 100 63 138t87 38q49 0 135 -32.5t117 -32.5q26 0 43.5 20t32.5 68l86 -15q-42 -180 -150 -180q-54 0 -139 33t-115 33q-51 0 -72 -82z" />
<glyph unicode="&#xd6;" horiz-adv-x="1382" d="M119 750q0 371 160.5 575.5t445.5 204.5q272 0 405.5 -194.5t133.5 -557.5q0 -391 -144.5 -597t-435.5 -206q-285 0 -425 198t-140 577zM268 756q0 -656 428 -656q420 0 420 664q0 151 -22 265.5t-68.5 200t-124 129.5t-184.5 44q-148 0 -250 -81t-150.5 -224.5 t-48.5 -341.5zM487 1610v182h144v-182h-144zM811 1610v182h143v-182h-143z" />
<glyph unicode="&#xd7;" d="M195 416l239 239l-239 242l73 76l242 -242l242 242l75 -74l-243 -244l243 -241l-75 -74l-242 242l-242 -242z" />
<glyph unicode="&#xd8;" horiz-adv-x="1361" d="M119 750q0 370 158.5 575t437.5 205q177 0 299 -92l88 159l104 -55l-106 -192q143 -192 143 -572q0 -390 -142.5 -596.5t-426.5 -206.5q-162 0 -283 70l-86 -160l-102 64l94 174q-178 190 -178 627zM268 756q0 -326 107 -492l569 1047q-92 92 -237 92q-215 0 -327 -173 t-112 -474zM459 170q95 -70 227 -70q410 0 410 664q0 274 -76 436z" />
<glyph unicode="&#xd9;" horiz-adv-x="1425" d="M184 522v981h148v-958q0 -229 94 -337t289 -108q190 0 284.5 106.5t94.5 334.5v962h147v-983q0 -262 -138.5 -403.5t-397.5 -141.5q-521 0 -521 547zM461 1753l74 115l329 -226l-43 -75z" />
<glyph unicode="&#xda;" horiz-adv-x="1425" d="M184 522v981h148v-958q0 -229 94 -337t289 -108q190 0 284.5 106.5t94.5 334.5v962h147v-983q0 -262 -138.5 -403.5t-397.5 -141.5q-521 0 -521 547zM535 1642l329 226l72 -115l-361 -186z" />
<glyph unicode="&#xdb;" horiz-adv-x="1425" d="M184 522v981h148v-958q0 -229 94 -337t289 -108q190 0 284.5 106.5t94.5 334.5v962h147v-983q0 -262 -138.5 -403.5t-397.5 -141.5q-521 0 -521 547zM403 1628l252 240h86l252 -240l-47 -61l-248 170l-247 -170z" />
<glyph unicode="&#xdc;" horiz-adv-x="1425" d="M184 522v981h148v-958q0 -229 94 -337t289 -108q190 0 284.5 106.5t94.5 334.5v962h147v-983q0 -262 -138.5 -403.5t-397.5 -141.5q-521 0 -521 547zM465 1610v182h143v-182h-143zM788 1610v182h144v-182h-144z" />
<glyph unicode="&#xdd;" horiz-adv-x="1116" d="M0 1503h168l387 -776l406 776h155l-485 -917v-586h-148v573zM391 1642l330 226l72 -115l-361 -186z" />
<glyph unicode="&#xde;" horiz-adv-x="1214" d="M195 0v1503h147v-280h303q112 0 196.5 -22.5t137 -60.5t85.5 -93.5t45.5 -114.5t12.5 -131q0 -49 -6 -94.5t-22 -96.5t-41.5 -93.5t-68.5 -82t-99 -67t-136.5 -44t-177.5 -16.5h-229v-307h-147zM342 428h225q208 0 304 92.5t96 276.5q0 162 -84 234.5t-273 72.5h-268 v-676z" />
<glyph unicode="&#xdf;" horiz-adv-x="1300" d="M164 0v1042q0 241 129.5 364.5t349.5 123.5q195 0 300.5 -91.5t105.5 -252.5q0 -58 -13 -127.5t-28 -110.5q-20 4 -60 4q-207 0 -207 -139q0 -58 35 -93t103 -61q15 -6 52.5 -20t57 -22t53.5 -25t53 -32t43 -40.5t37 -53.5t22 -66.5t9 -84.5q0 -160 -99.5 -250 t-279.5 -90q-74 0 -135 17t-111 54t-80 101.5t-36 153.5l115 23q15 -126 73 -183t174 -57q122 0 185 58t63 161q0 51 -14.5 88t-45 62t-59 39t-75.5 32q-114 42 -155 66q-113 71 -114 203q0 124 85 191.5t206 64.5q17 65 17 135q0 120 -74.5 177.5t-206.5 57.5 q-168 0 -255 -99t-87 -314v-1006h-133z" />
<glyph unicode="&#xe0;" horiz-adv-x="1107" d="M115 258q0 60 18 108t47.5 81.5t79.5 58.5t100.5 40t124 25.5t137.5 15t154 7.5v59q0 90 -20.5 153t-58 96t-81.5 47t-100 14q-64 0 -109.5 -10t-71 -31t-39.5 -44t-17 -59.5t-1.5 -65.5t6.5 -74q1 -5 1 -7l-119 -10q-23 87 -9.5 161.5t54 129.5t122 86.5t195.5 31.5 q96 0 165.5 -26.5t110 -69.5t64.5 -111t31.5 -137.5t7.5 -163.5v-389q0 -63 27 -81t96 -3v-90q-50 -10 -89 -10.5t-64.5 8.5t-42.5 22t-26.5 36t-14 43.5t-7.5 50.5q-44 -81 -132 -128t-205 -47q-163 0 -248.5 83t-85.5 200zM256 272q0 -90 55.5 -140t171.5 -50 q119 0 206 81.5t87 207.5v116q-131 -2 -224.5 -13t-150.5 -28t-89.5 -44.5t-44 -57.5t-11.5 -72zM297 1448l100 86l250 -309l-59 -56z" />
<glyph unicode="&#xe1;" horiz-adv-x="1107" d="M115 258q0 60 18 108t47.5 81.5t79.5 58.5t100.5 40t124 25.5t137.5 15t154 7.5v59q0 90 -20.5 153t-58 96t-81.5 47t-100 14q-64 0 -109.5 -10t-71 -31t-39.5 -44t-17 -59.5t-1.5 -65.5t6.5 -74q1 -5 1 -7l-119 -10q-23 87 -9.5 161.5t54 129.5t122 86.5t195.5 31.5 q96 0 165.5 -26.5t110 -69.5t64.5 -111t31.5 -137.5t7.5 -163.5v-389q0 -63 27 -81t96 -3v-90q-50 -10 -89 -10.5t-64.5 8.5t-42.5 22t-26.5 36t-14 43.5t-7.5 50.5q-44 -81 -132 -128t-205 -47q-163 0 -248.5 83t-85.5 200zM256 272q0 -90 55.5 -140t171.5 -50 q119 0 206 81.5t87 207.5v116q-131 -2 -224.5 -13t-150.5 -28t-89.5 -44.5t-44 -57.5t-11.5 -72zM393 1225l250 309l100 -86l-290 -279z" />
<glyph unicode="&#xe2;" horiz-adv-x="1107" d="M115 258q0 60 18 108t47.5 81.5t79.5 58.5t100.5 40t124 25.5t137.5 15t154 7.5v59q0 90 -20.5 153t-58 96t-81.5 47t-100 14q-64 0 -109.5 -10t-71 -31t-39.5 -44t-17 -59.5t-1.5 -65.5t6.5 -74q1 -5 1 -7l-119 -10q-23 87 -9.5 161.5t54 129.5t122 86.5t195.5 31.5 q96 0 165.5 -26.5t110 -69.5t64.5 -111t31.5 -137.5t7.5 -163.5v-389q0 -63 27 -81t96 -3v-90q-50 -10 -89 -10.5t-64.5 8.5t-42.5 22t-26.5 36t-14 43.5t-7.5 50.5q-44 -81 -132 -128t-205 -47q-163 0 -248.5 83t-85.5 200zM233 1225l244 291h86l244 -291l-59 -56l-228 222 l-227 -222zM256 272q0 -90 55.5 -140t171.5 -50q119 0 206 81.5t87 207.5v116q-131 -2 -224.5 -13t-150.5 -28t-89.5 -44.5t-44 -57.5t-11.5 -72z" />
<glyph unicode="&#xe3;" horiz-adv-x="1107" d="M115 258q0 60 18 108t47.5 81.5t79.5 58.5t100.5 40t124 25.5t137.5 15t154 7.5v59q0 90 -20.5 153t-58 96t-81.5 47t-100 14q-64 0 -109.5 -10t-71 -31t-39.5 -44t-17 -59.5t-1.5 -65.5t6.5 -74q1 -5 1 -7l-119 -10q-23 87 -9.5 161.5t54 129.5t122 86.5t195.5 31.5 q96 0 165.5 -26.5t110 -69.5t64.5 -111t31.5 -137.5t7.5 -163.5v-389q0 -63 27 -81t96 -3v-90q-50 -10 -89 -10.5t-64.5 8.5t-42.5 22t-26.5 36t-14 43.5t-7.5 50.5q-44 -81 -132 -128t-205 -47q-163 0 -248.5 83t-85.5 200zM238 1260q21 100 62.5 138t86.5 38q49 0 135 -33 t117 -33q26 0 43.5 20t32.5 68l86 -14q-42 -180 -150 -180q-54 0 -139 32.5t-115 32.5q-50 0 -71 -82zM256 272q0 -90 55.5 -140t171.5 -50q119 0 206 81.5t87 207.5v116q-131 -2 -224.5 -13t-150.5 -28t-89.5 -44.5t-44 -57.5t-11.5 -72z" />
<glyph unicode="&#xe4;" horiz-adv-x="1107" d="M115 258q0 60 18 108t47.5 81.5t79.5 58.5t100.5 40t124 25.5t137.5 15t154 7.5v59q0 90 -20.5 153t-58 96t-81.5 47t-100 14q-64 0 -109.5 -10t-71 -31t-39.5 -44t-17 -59.5t-1.5 -65.5t6.5 -74q1 -5 1 -7l-119 -10q-23 87 -9.5 161.5t54 129.5t122 86.5t195.5 31.5 q96 0 165.5 -26.5t110 -69.5t64.5 -111t31.5 -137.5t7.5 -163.5v-389q0 -63 27 -81t96 -3v-90q-50 -10 -89 -10.5t-64.5 8.5t-42.5 22t-26.5 36t-14 43.5t-7.5 50.5q-44 -81 -132 -128t-205 -47q-163 0 -248.5 83t-85.5 200zM256 272q0 -90 55.5 -140t171.5 -50 q119 0 206 81.5t87 207.5v116q-131 -2 -224.5 -13t-150.5 -28t-89.5 -44.5t-44 -57.5t-11.5 -72zM287 1262v182h143v-182h-143zM610 1262v182h144v-182h-144z" />
<glyph unicode="&#xe5;" horiz-adv-x="1107" d="M115 258q0 60 18 108t47.5 81.5t79.5 58.5t100.5 40t124 25.5t137.5 15t154 7.5v59q0 90 -20.5 153t-58 96t-81.5 47t-100 14q-64 0 -109.5 -10t-71 -31t-39.5 -44t-17 -59.5t-1.5 -65.5t6.5 -74q1 -5 1 -7l-119 -10q-23 87 -9.5 161.5t54 129.5t122 86.5t195.5 31.5 q96 0 165.5 -26.5t110 -69.5t64.5 -111t31.5 -137.5t7.5 -163.5v-389q0 -63 27 -81t96 -3v-90q-50 -10 -89 -10.5t-64.5 8.5t-42.5 22t-26.5 36t-14 43.5t-7.5 50.5q-44 -81 -132 -128t-205 -47q-163 0 -248.5 83t-85.5 200zM256 272q0 -90 55.5 -140t171.5 -50 q119 0 206 81.5t87 207.5v116q-131 -2 -224.5 -13t-150.5 -28t-89.5 -44.5t-44 -57.5t-11.5 -72zM326 1360q0 79 59.5 126.5t138.5 47.5q84 0 136.5 -45t52.5 -123q0 -84 -53.5 -133t-143.5 -49q-93 0 -141.5 47t-48.5 129zM426 1360q0 -96 94 -96q90 0 90 98q0 94 -88 94 q-44 0 -70 -23.5t-26 -72.5z" />
<glyph unicode="&#xe6;" horiz-adv-x="1722" d="M115 258q0 60 18 108t47.5 81.5t79.5 58.5t100.5 40t124 25.5t137.5 15t154 7.5v59q0 90 -20.5 153t-58 96t-81.5 47t-100 14q-95 0 -151 -24t-72 -64t-19.5 -92.5t7.5 -109.5v-1l-115 -10q-23 87 -9.5 161.5t54 129.5t122 86.5t195.5 31.5q252 0 326 -207 q121 207 383 207q207 0 305.5 -150t69.5 -425h-707q0 -87 15.5 -157t51 -129t100.5 -91.5t155 -32.5q113 0 187.5 65t88.5 203l107 -8q-7 -85 -36 -152t-68.5 -107t-91 -66.5t-99 -36t-96.5 -9.5q-278 0 -371 234q-64 -122 -158 -178t-241 -56q-163 0 -248.5 83t-85.5 200z M264 272q0 -97 62 -143.5t163 -46.5q120 0 203.5 84t83.5 205v116q-133 -4 -226 -15.5t-149 -28.5t-86.5 -44t-40.5 -56t-10 -71zM905 602h588q2 80 -11.5 143.5t-45 113.5t-87 77t-132.5 27q-78 0 -139 -30.5t-97.5 -82.5t-55 -114.5t-20.5 -133.5z" />
<glyph unicode="&#xe7;" horiz-adv-x="1036" d="M102 506q0 266 125 415.5t348 149.5q98 0 173 -30t119.5 -83t67.5 -117.5t26 -140.5l-119 -8q-12 132 -84 201.5t-193 69.5q-155 0 -239 -114t-84 -335q0 -202 77 -314t238 -112q129 0 194 64.5t83 193.5l116 -10q-21 -181 -119 -267t-253 -92l-39 -86q29 13 59 13 q69 0 113.5 -42.5t44.5 -115.5q0 -87 -63 -133.5t-156 -46.5q-54 0 -106.5 24.5t-86.5 79.5l66 54q51 -66 122 -66q101 0 101 84q0 43 -25 64.5t-67 21.5q-30 0 -64 -21l-49 25l59 148q-103 10 -179 54t-120 116t-65 160.5t-21 195.5z" />
<glyph unicode="&#xe8;" horiz-adv-x="1058" d="M102 514q0 256 121.5 406.5t349.5 150.5q207 0 305.5 -150t69.5 -425h-706q0 -87 15.5 -157.5t50 -129t97 -91t150.5 -32.5q249 0 281 254l110 -12q-7 -69 -28.5 -125.5t-52.5 -94t-68 -64.5t-79.5 -41.5t-82 -21t-80.5 -6.5q-453 0 -453 539zM242 602h587 q2 80 -11.5 143.5t-45 113.5t-87 77t-132.5 27q-78 0 -139 -30.5t-97 -82.5t-54.5 -114.5t-20.5 -133.5zM338 1448l100 86l250 -309l-59 -56z" />
<glyph unicode="&#xe9;" horiz-adv-x="1058" d="M102 514q0 256 121.5 406.5t349.5 150.5q207 0 305.5 -150t69.5 -425h-706q0 -87 15.5 -157.5t50 -129t97 -91t150.5 -32.5q249 0 281 254l110 -12q-7 -69 -28.5 -125.5t-52.5 -94t-68 -64.5t-79.5 -41.5t-82 -21t-80.5 -6.5q-453 0 -453 539zM242 602h587 q2 80 -11.5 143.5t-45 113.5t-87 77t-132.5 27q-78 0 -139 -30.5t-97 -82.5t-54.5 -114.5t-20.5 -133.5zM434 1225l250 309l100 -86l-290 -279z" />
<glyph unicode="&#xea;" horiz-adv-x="1058" d="M102 514q0 256 121.5 406.5t349.5 150.5q207 0 305.5 -150t69.5 -425h-706q0 -87 15.5 -157.5t50 -129t97 -91t150.5 -32.5q249 0 281 254l110 -12q-7 -69 -28.5 -125.5t-52.5 -94t-68 -64.5t-79.5 -41.5t-82 -21t-80.5 -6.5q-453 0 -453 539zM242 602h587 q2 80 -11.5 143.5t-45 113.5t-87 77t-132.5 27q-78 0 -139 -30.5t-97 -82.5t-54.5 -114.5t-20.5 -133.5zM274 1225l244 291h86l244 -291l-60 -56l-227 222l-227 -222z" />
<glyph unicode="&#xeb;" horiz-adv-x="1058" d="M102 514q0 256 121.5 406.5t349.5 150.5q207 0 305.5 -150t69.5 -425h-706q0 -87 15.5 -157.5t50 -129t97 -91t150.5 -32.5q249 0 281 254l110 -12q-7 -69 -28.5 -125.5t-52.5 -94t-68 -64.5t-79.5 -41.5t-82 -21t-80.5 -6.5q-453 0 -453 539zM242 602h587 q2 80 -11.5 143.5t-45 113.5t-87 77t-132.5 27q-78 0 -139 -30.5t-97 -82.5t-54.5 -114.5t-20.5 -133.5zM328 1262v182h143v-182h-143zM651 1262v182h144v-182h-144z" />
<glyph unicode="&#xec;" horiz-adv-x="446" d="M0 1448l100 86l250 -309l-59 -56zM156 0v1047h135v-1047h-135z" />
<glyph unicode="&#xed;" horiz-adv-x="446" d="M96 1225l250 309l100 -86l-290 -279zM156 0v1047h135v-1047h-135z" />
<glyph unicode="&#xee;" horiz-adv-x="446" d="M-63 1225l243 291h86l244 -291l-59 -56l-228 222l-227 -222zM156 0v1047h135v-1047h-135z" />
<glyph unicode="&#xef;" horiz-adv-x="446" d="M-10 1262v182h143v-182h-143zM156 0v1047h135v-1047h-135zM313 1262v182h144v-182h-144z" />
<glyph unicode="&#xf0;" horiz-adv-x="1120" d="M102 524q0 258 128 402.5t321 144.5q150 0 250 -100l4 6q-68 168 -180 287l-230 -125l-47 84l201 110q-74 63 -182 129l145 41q90 -53 147 -102l228 123l47 -84l-201 -111q137 -145 210 -343t73 -425q0 -290 -119.5 -438t-341.5 -148q-453 0 -453 549zM242 526 q0 -96 17 -173t53 -138.5t99 -95t150 -33.5q84 0 146.5 34.5t99.5 96t54.5 140.5t17.5 175q0 126 -30 218.5t-102 150t-182 57.5q-83 0 -146 -33.5t-101 -93t-57 -136.5t-19 -169z" />
<glyph unicode="&#xf1;" horiz-adv-x="1140" d="M156 0v1047h127l8 -160q99 184 325 184q373 0 373 -444v-627h-135v608q0 184 -61.5 267t-192.5 83q-71 0 -126 -21t-88.5 -54.5t-55.5 -81t-30.5 -96t-8.5 -103.5v-602h-135zM295 1260q21 100 62.5 138t86.5 38q49 0 135 -33t117 -33q26 0 43.5 20t32.5 68l86 -14 q-42 -180 -149 -180q-54 0 -139 32.5t-115 32.5q-51 0 -72 -82z" />
<glyph unicode="&#xf2;" horiz-adv-x="1118" d="M102 524q0 261 132.5 404t343.5 143q210 0 324 -135.5t114 -390.5q0 -279 -119.5 -424.5t-341.5 -145.5q-453 0 -453 549zM242 526q0 -96 17 -173t53 -138.5t99 -95t150 -33.5q84 0 146.5 34.5t99.5 96t54.5 140.5t17.5 175q0 126 -30 218.5t-102 150t-182 57.5 q-83 0 -146 -33.5t-101 -93t-57 -136.5t-19 -169zM342 1448l100 86l250 -309l-59 -56z" />
<glyph unicode="&#xf3;" horiz-adv-x="1118" d="M102 524q0 261 132.5 404t343.5 143q210 0 324 -135.5t114 -390.5q0 -279 -119.5 -424.5t-341.5 -145.5q-453 0 -453 549zM242 526q0 -96 17 -173t53 -138.5t99 -95t150 -33.5q84 0 146.5 34.5t99.5 96t54.5 140.5t17.5 175q0 126 -30 218.5t-102 150t-182 57.5 q-83 0 -146 -33.5t-101 -93t-57 -136.5t-19 -169zM438 1225l250 309l100 -86l-290 -279z" />
<glyph unicode="&#xf4;" horiz-adv-x="1118" d="M102 524q0 261 132.5 404t343.5 143q210 0 324 -135.5t114 -390.5q0 -279 -119.5 -424.5t-341.5 -145.5q-453 0 -453 549zM242 526q0 -96 17 -173t53 -138.5t99 -95t150 -33.5q84 0 146.5 34.5t99.5 96t54.5 140.5t17.5 175q0 126 -30 218.5t-102 150t-182 57.5 q-83 0 -146 -33.5t-101 -93t-57 -136.5t-19 -169zM279 1225l243 291h86l244 -291l-59 -56l-228 222l-227 -222z" />
<glyph unicode="&#xf5;" horiz-adv-x="1118" d="M102 524q0 261 132.5 404t343.5 143q210 0 324 -135.5t114 -390.5q0 -279 -119.5 -424.5t-341.5 -145.5q-453 0 -453 549zM242 526q0 -96 17 -173t53 -138.5t99 -95t150 -33.5q84 0 146.5 34.5t99.5 96t54.5 140.5t17.5 175q0 126 -30 218.5t-102 150t-182 57.5 q-83 0 -146 -33.5t-101 -93t-57 -136.5t-19 -169zM283 1260q21 100 62.5 138t86.5 38q49 0 135 -33t117 -33q26 0 43.5 20t32.5 68l86 -14q-42 -180 -150 -180q-54 0 -139 32.5t-115 32.5q-50 0 -71 -82z" />
<glyph unicode="&#xf6;" horiz-adv-x="1118" d="M102 524q0 261 132.5 404t343.5 143q210 0 324 -135.5t114 -390.5q0 -279 -119.5 -424.5t-341.5 -145.5q-453 0 -453 549zM242 526q0 -96 17 -173t53 -138.5t99 -95t150 -33.5q84 0 146.5 34.5t99.5 96t54.5 140.5t17.5 175q0 126 -30 218.5t-102 150t-182 57.5 q-83 0 -146 -33.5t-101 -93t-57 -136.5t-19 -169zM332 1262v182h143v-182h-143zM655 1262v182h144v-182h-144z" />
<glyph unicode="&#xf7;" horiz-adv-x="1187" d="M199 604v107h788v-107h-788zM508 291v223h151v-223h-151zM508 791v223h151v-223h-151z" />
<glyph unicode="&#xf8;" horiz-adv-x="1118" d="M102 524q0 261 132.5 404t343.5 143q125 0 219 -51l77 127l97 -51l-86 -142q131 -140 131 -409q0 -279 -119.5 -424.5t-341.5 -145.5q-139 0 -231 50l-88 -146l-95 58l95 153q-134 137 -134 434zM242 526q0 -198 69 -311l422 696q-68 47 -168 47q-83 0 -146 -33.5 t-101 -93t-57 -136.5t-19 -169zM389 133q68 -47 172 -47q84 0 146.5 34.5t99.5 96t54.5 140.5t17.5 175q0 184 -70 297z" />
<glyph unicode="&#xf9;" horiz-adv-x="1103" d="M147 420v627h136v-617q0 -181 59.5 -261.5t177.5 -80.5q82 0 141 33t91 90t46.5 121.5t14.5 140.5v574h135v-1047h-123l-12 160q-21 -35 -42 -61t-57.5 -57.5t-90 -49t-119.5 -17.5q-357 0 -357 445zM322 1448l100 86l250 -309l-60 -56z" />
<glyph unicode="&#xfa;" horiz-adv-x="1103" d="M147 420v627h136v-617q0 -181 59.5 -261.5t177.5 -80.5q82 0 141 33t91 90t46.5 121.5t14.5 140.5v574h135v-1047h-123l-12 160q-21 -35 -42 -61t-57.5 -57.5t-90 -49t-119.5 -17.5q-357 0 -357 445zM418 1225l250 309l100 -86l-291 -279z" />
<glyph unicode="&#xfb;" horiz-adv-x="1103" d="M147 420v627h136v-617q0 -181 59.5 -261.5t177.5 -80.5q82 0 141 33t91 90t46.5 121.5t14.5 140.5v574h135v-1047h-123l-12 160q-21 -35 -42 -61t-57.5 -57.5t-90 -49t-119.5 -17.5q-357 0 -357 445zM258 1225l244 291h86l243 -291l-59 -56l-227 222l-228 -222z" />
<glyph unicode="&#xfc;" horiz-adv-x="1103" d="M147 420v627h136v-617q0 -181 59.5 -261.5t177.5 -80.5q82 0 141 33t91 90t46.5 121.5t14.5 140.5v574h135v-1047h-123l-12 160q-21 -35 -42 -61t-57.5 -57.5t-90 -49t-119.5 -17.5q-357 0 -357 445zM311 1262v182h144v-182h-144zM635 1262v182h143v-182h-143z" />
<glyph unicode="&#xfd;" horiz-adv-x="892" d="M23 -379l18 103q70 -17 100 -17q85 0 128.5 58.5t97.5 218.5l8 24l-352 1039h141l282 -879l293 879h140l-379 -1057q-42 -118 -73.5 -186.5t-72.5 -117.5t-89 -67t-118 -18q-72 0 -124 20zM326 1225l249 309l101 -86l-291 -279z" />
<glyph unicode="&#xfe;" horiz-adv-x="1138" d="M156 -375v1878h133v-606q119 174 338 174q85 0 157.5 -31t129.5 -92.5t89.5 -162.5t32.5 -230q0 -106 -17 -193.5t-48.5 -150t-74 -109t-95.5 -74t-110.5 -40.5t-121.5 -13q-171 0 -276 148h-4v-498h-133zM285 522q0 -124 21 -211t61.5 -136.5t93 -71t123.5 -21.5 q156 0 233.5 121t77.5 348q0 412 -291 412q-154 0 -236.5 -103t-82.5 -338z" />
<glyph unicode="&#xff;" horiz-adv-x="892" d="M23 -379l18 103q70 -17 100 -17q85 0 128.5 58.5t97.5 218.5l8 24l-352 1039h141l282 -879l293 879h140l-379 -1057q-42 -118 -73.5 -186.5t-72.5 -117.5t-89 -67t-118 -18q-72 0 -124 20zM219 1262v182h143v-182h-143zM543 1262v182h143v-182h-143z" />
<glyph unicode="&#x152;" horiz-adv-x="1867" d="M119 750q0 370 158.5 575t437.5 205q87 0 176 -27h825v-119h-637v-550h568v-119h-568v-596h690v-119h-921q-102 -25 -174 -25q-278 0 -416.5 198.5t-138.5 576.5zM268 756q0 -205 42 -348.5t137 -225.5t239 -82q133 0 246 50v1200q-92 53 -225 53q-215 0 -327 -173 t-112 -474z" />
<glyph unicode="&#x153;" horiz-adv-x="1830" d="M102 504q0 142 35.5 251.5t99.5 177.5t148.5 103t185.5 35q267 0 383 -231q60 110 159.5 170.5t232.5 60.5q207 0 305 -150t69 -425h-706q0 -87 16 -157.5t51 -129t98 -91t150 -32.5q255 0 283 268l106 -8q-8 -86 -36.5 -153t-68 -107t-91.5 -66t-101.5 -35.5 t-103.5 -9.5q-136 0 -232.5 60.5t-144.5 169.5q-114 -230 -389 -230q-223 0 -336 139.5t-113 389.5zM242 518q0 -91 17 -166t52.5 -136t99 -95.5t148.5 -34.5t148 34t100 96t54.5 139.5t17.5 172.5q0 198 -76 314t-238 116q-110 0 -184 -58.5t-106.5 -155t-32.5 -226.5z M1014 602h588q5 164 -61 262.5t-214 98.5q-80 0 -141 -30.5t-97 -82.5t-54.5 -114.5t-20.5 -133.5z" />
<glyph unicode="&#x178;" horiz-adv-x="1116" d="M0 1503h168l387 -776l406 776h155l-485 -917v-586h-148v573zM322 1610v182h143v-182h-143zM645 1610v182h143v-182h-143z" />
<glyph unicode="&#x2c6;" d="M225 1225l244 291h86l244 -291l-60 -56l-227 222l-227 -222z" />
<glyph unicode="&#x2dc;" d="M229 1260q21 100 63 138t87 38q49 0 135 -33t117 -33q26 0 43.5 20t32.5 68l86 -14q-42 -180 -150 -180q-54 0 -139 32.5t-115 32.5q-51 0 -72 -82z" />
<glyph unicode="&#x2000;" horiz-adv-x="954" />
<glyph unicode="&#x2001;" horiz-adv-x="1909" />
<glyph unicode="&#x2002;" horiz-adv-x="954" />
<glyph unicode="&#x2003;" horiz-adv-x="1909" />
<glyph unicode="&#x2004;" horiz-adv-x="636" />
<glyph unicode="&#x2005;" horiz-adv-x="477" />
<glyph unicode="&#x2006;" horiz-adv-x="318" />
<glyph unicode="&#x2007;" horiz-adv-x="318" />
<glyph unicode="&#x2008;" horiz-adv-x="238" />
<glyph unicode="&#x2009;" horiz-adv-x="381" />
<glyph unicode="&#x200a;" horiz-adv-x="106" />
<glyph unicode="&#x2010;" horiz-adv-x="718" d="M82 537v116h555v-116h-555z" />
<glyph unicode="&#x2011;" horiz-adv-x="718" d="M82 537v116h555v-116h-555z" />
<glyph unicode="&#x2012;" horiz-adv-x="718" d="M82 537v116h555v-116h-555z" />
<glyph unicode="&#x2013;" horiz-adv-x="901" d="M0 582v110h901v-110h-901z" />
<glyph unicode="&#x2014;" horiz-adv-x="1802" d="M0 582v110h1802v-110h-1802z" />
<glyph unicode="&#x2018;" horiz-adv-x="395" d="M102 1008v184l95 324l69 -19l-61 -264h67v-225h-170z" />
<glyph unicode="&#x2019;" horiz-adv-x="395" d="M102 1278v225h170v-184l-94 -324l-69 19l61 264h-68z" />
<glyph unicode="&#x201a;" horiz-adv-x="395" d="M123 0v225h170v-184l-94 -324l-70 19l61 264h-67z" />
<glyph unicode="&#x201c;" horiz-adv-x="667" d="M102 1008v184l95 324l69 -19l-61 -264h67v-225h-170zM395 1008v184l94 324l70 -19l-61 -264h67v-225h-170z" />
<glyph unicode="&#x201d;" horiz-adv-x="688" d="M102 1278v225h170v-184l-94 -324l-69 19l61 264h-68zM395 1278v225h170v-184l-94 -324l-70 19l62 264h-68z" />
<glyph unicode="&#x201e;" horiz-adv-x="688" d="M102 0v225h170v-184l-94 -324l-69 19l61 264h-68zM395 0v225h170v-184l-94 -324l-70 19l62 264h-68z" />
<glyph unicode="&#x2022;" horiz-adv-x="964" d="M307 696q0 95 50.5 141t123.5 46t124.5 -46t51.5 -141t-51.5 -140.5t-124.5 -45.5t-123.5 45.5t-50.5 140.5z" />
<glyph unicode="&#x2026;" horiz-adv-x="1265" d="M135 0v223h152v-223h-152zM557 0v223h152v-223h-152zM979 0v223h151v-223h-151z" />
<glyph unicode="&#x202f;" horiz-adv-x="381" />
<glyph unicode="&#x2039;" horiz-adv-x="530" d="M82 514l258 391l86 -39l-203 -346l205 -368l-86 -43z" />
<glyph unicode="&#x203a;" horiz-adv-x="528" d="M80 152l205 368l-203 346l86 39l258 -391l-260 -405z" />
<glyph unicode="&#x205f;" horiz-adv-x="477" />
<glyph unicode="&#x20ac;" horiz-adv-x="1191" d="M-8 543l20 110h121q-2 31 -2 95q0 59 2 88h-100l20 110h90q39 288 186.5 437t364.5 149q202 0 317 -137.5t113 -366.5l-127 -12q-10 214 -91.5 303.5t-225.5 89.5q-152 0 -254 -114t-133 -349h500l-21 -110h-487q-2 -27 -2 -82q0 -70 2 -101h467l-21 -110h-438 q54 -447 358 -447q149 0 233 96.5t107 262.5l131 -17q-33 -234 -157 -348.5t-324 -114.5q-439 0 -500 568h-149z" />
<glyph unicode="&#x2122;" horiz-adv-x="1642" d="M43 1419v84h584v-84h-240v-702h-104v702h-240zM743 717v786h146l239 -684l242 684h139v-786h-92v676l-246 -676h-90l-245 676v-676h-93z" />
<glyph unicode="&#x25fc;" horiz-adv-x="1044" d="M0 0v1044h1044v-1044h-1044z" />
</font>
</defs>
</svg>
