<?xml version="1.0" standalone="no"?>
<!DOCTYPE svg PUBLIC "-//W3C//DTD SVG 1.1//EN" "http://www.w3.org/Graphics/SVG/1.1/DTD/svg11.dtd" >
<svg xmlns="http://www.w3.org/2000/svg" xmlns:xlink="http://www.w3.org/1999/xlink" version="1.1">
<metadata></metadata>
<defs>
<font id="tablet_gothicitalic" horiz-adv-x="1310" >
<font-face units-per-em="2048" ascent="1546" descent="-502" />
<missing-glyph horiz-adv-x="401" />
<glyph unicode="&#xfb01;" horiz-adv-x="1130" d="M74 0l141 907h-125l21 142h129l26 165q11 66 36 121t67 99.5t106 69t146 24.5q85 0 174 -27l-33 -139q-78 20 -131 20q-86 0 -127 -49t-60 -172l-16 -112h623l-164 -1049h-189l142 907h-434l-144 -907h-188zM899 1284l37 219h188l-34 -219h-191z" />
<glyph unicode="&#xfb02;" horiz-adv-x="1130" d="M74 0l141 907h-125l21 142h129l26 165q22 141 108.5 227.5t243.5 86.5q88 0 177 -27l-33 -139q-78 20 -131 20q-86 0 -127 -49t-60 -172l-16 -112h244l-23 -142h-243l-144 -907h-188zM698 0l238 1503h188l-237 -1503h-189z" />
<glyph unicode="&#xfb03;" horiz-adv-x="1753" d="M74 0l141 907h-125l21 142h129l24 155q22 139 107 226.5t241 87.5q99 0 195 -33l-39 -137q-82 24 -139 24q-85 0 -125.5 -49t-59.5 -172l-16 -102h434l27 165q22 141 109 227.5t247 86.5q83 0 172 -27l-33 -139q-74 20 -131 20q-86 0 -125.5 -48.5t-58.5 -172.5l-18 -112 h622l-164 -1049h-188l141 907h-434l-143 -907h-187l142 907h-434l-144 -907h-188zM1522 1284l37 219h188l-35 -219h-190z" />
<glyph unicode="&#xfb04;" horiz-adv-x="1753" d="M74 0l141 907h-125l21 142h129l24 153q24 141 108 227.5t240 86.5q104 0 195 -33l-39 -135q-75 22 -139 22q-85 0 -125.5 -49t-59.5 -170l-16 -102h434l27 165q22 140 109 227t245 87q85 0 174 -27l-33 -139q-78 20 -131 20q-86 0 -125.5 -48.5t-58.5 -172.5l-18 -112 h243l-20 -142h-246l-143 -907h-187l142 907h-434l-144 -907h-188zM1321 0l238 1503h188l-238 -1503h-188z" />
<glyph horiz-adv-x="0" />
<glyph horiz-adv-x="682" />
<glyph unicode=" "  horiz-adv-x="401" />
<glyph unicode="&#x09;" horiz-adv-x="401" />
<glyph unicode="&#xa0;" horiz-adv-x="401" />
<glyph unicode="!" horiz-adv-x="600" d="M98 0l37 242h203l-37 -242h-203zM174 420l156 1083h213l-187 -1083h-182z" />
<glyph unicode="&#x22;" horiz-adv-x="716" d="M223 1065l56 438h159l-88 -438h-127zM494 1065l55 438h160l-88 -438h-127z" />
<glyph unicode="#" horiz-adv-x="1339" d="M43 283l45 137h215l96 321h-225l47 140h223l76 256h160l-76 -256h291l78 256h162l-78 -256h217l-47 -140h-213l-96 -321h227l-45 -137h-226l-86 -283h-161l86 283h-293l-86 -283h-160l86 283h-217zM463 420h293l96 321h-293z" />
<glyph unicode="$" horiz-adv-x="1198" d="M59 477l197 29q-5 -72 0.5 -122.5t25 -95t62.5 -71t109 -35.5l82 518q-78 22 -132 45.5t-104.5 62.5t-76 98t-25.5 138q0 105 37 187t102.5 134t146 81.5t176.5 38.5l21 127h166l-21 -129q178 -23 260 -138t68 -305l-192 -28q9 133 -29.5 208.5t-132.5 96.5l-76 -475 q62 -19 107 -36.5t93.5 -47t78.5 -64.5t49.5 -86.5t19.5 -115.5q0 -89 -24.5 -163t-68 -127t-104 -92t-131 -60.5t-151.5 -29.5l-23 -151h-166l23 149q-203 17 -293.5 129t-73.5 330zM406 1081q0 -76 39 -120t118 -72l70 432q-227 -31 -227 -240zM618 184q117 19 181.5 87 t64.5 184q0 77 -43.5 123.5t-126.5 76.5z" />
<glyph unicode="%" horiz-adv-x="1716" d="M102 1004q0 61 13 131q32 163 139.5 265.5t288.5 102.5q144 0 221.5 -78.5t77.5 -230.5q0 -65 -13 -135q-16 -76 -49.5 -140t-85 -115t-127.5 -79.5t-168 -28.5q-141 0 -219 80t-78 228zM244 37l1161 1507l117 -69l-1168 -1514zM258 1012q0 -98 38 -146.5t124 -48.5 q101 0 164.5 69t87.5 177q14 57 14 125q0 98 -38 146t-124 48q-101 0 -165.5 -71t-88.5 -181q-12 -62 -12 -118zM909 287q0 69 15 137q33 161 140.5 260.5t287.5 99.5q143 0 221 -78t78 -231q0 -73 -19 -151q-35 -153 -142.5 -250t-281.5 -97q-141 0 -220 81t-79 229z M1067 293q0 -97 38.5 -146t123.5 -49q98 0 161.5 67.5t88.5 172.5q14 63 14 131q0 98 -38 146.5t-124 48.5q-100 0 -164.5 -68t-87.5 -176q-12 -65 -12 -127z" />
<glyph unicode="&#x26;" horiz-adv-x="1454" d="M41 301q0 325 418 551q-101 140 -101 281q0 174 123.5 285.5t319.5 111.5q158 0 237.5 -71.5t79.5 -180.5q0 -76 -45 -186l-174 24q31 70 31 127q0 131 -154 131q-94 0 -156.5 -54t-62.5 -151q0 -117 105 -254l360 -473q120 169 170 424l174 -22q-40 -165 -94 -290 t-144 -247l164 -213l-157 -119l-156 199q-124 -98 -261.5 -148.5t-273.5 -50.5q-89 0 -159.5 18t-115.5 48t-74.5 72.5t-41.5 88.5t-12 99zM248 342q0 -98 65 -150.5t181 -52.5q95 0 197.5 44t191.5 120l-334 430q-301 -168 -301 -391z" />
<glyph unicode="'" horiz-adv-x="446" d="M223 1065l56 438h159l-88 -438h-127z" />
<glyph unicode="(" horiz-adv-x="622" d="M84 436q0 129 16 238q39 269 154.5 490.5t316.5 455.5l121 -41q-163 -229 -256.5 -441t-130.5 -452q-24 -153 -24 -295q0 -319 118 -631l-118 -45q-197 344 -197 721z" />
<glyph unicode=")" horiz-adv-x="622" d="M-80 -248q161 231 254.5 443t132.5 450q23 168 23 295q0 323 -119 633l119 45q196 -348 196 -727q0 -104 -16 -232q-38 -266 -154.5 -491t-316.5 -455z" />
<glyph unicode="*" horiz-adv-x="796" d="M158 1212l67 140l226 -117l8 268h147l-80 -268l265 117l24 -142l-274 -41l153 -202l-129 -86l-92 231l-166 -231l-108 86l215 200z" />
<glyph unicode="+" horiz-adv-x="1187" d="M190 604l21 135h328l51 326h135l-51 -326h325l-20 -135h-328l-51 -328h-135l51 328h-326z" />
<glyph unicode="," horiz-adv-x="413" d="M-20 -242l96 242h-62l39 242h213l-35 -209l-163 -301z" />
<glyph unicode="-" horiz-adv-x="700" d="M49 502l25 155h555l-25 -155h-555z" />
<glyph unicode="." horiz-adv-x="462" d="M29 0l37 242h202l-39 -242h-200z" />
<glyph unicode="/" horiz-adv-x="755" d="M-197 -137l998 1732l137 -65l-1001 -1739z" />
<glyph unicode="0" horiz-adv-x="1323" d="M98 492q0 96 11.5 194t37.5 200.5t64.5 195.5t97 175.5t130 142.5t168.5 95t208 35q226 0 332 -132.5t106 -391.5q0 -96 -11 -193t-36 -199.5t-63 -194t-95.5 -174t-128.5 -142t-167.5 -94t-208.5 -34.5q-445 0 -445 517zM299 510q0 -194 61 -285.5t209 -91.5 q90 0 165.5 42.5t127 114.5t90 160t60.5 187.5t32.5 188t10.5 169.5q0 187 -61 281t-203 94q-107 0 -194 -61t-141 -154t-90.5 -211.5t-51.5 -227t-15 -206.5z" />
<glyph unicode="1" horiz-adv-x="698" d="M139 1300q192 74 367 203h131l-238 -1503h-194l198 1255q-81 -60 -249 -118z" />
<glyph unicode="2" horiz-adv-x="1099" d="M23 0q10 118 34 199q14 46 38 91.5t47 80.5t64.5 78t67.5 68t79.5 68t76.5 60.5t82 61.5l82 61.5t75 60t71 64t57 64t47 70.5t27.5 73.5t11.5 81.5q0 95 -55.5 141.5t-151.5 46.5q-82 0 -141.5 -28t-93.5 -78t-49.5 -112t-14.5 -136l-187 -12q-5 86 11.5 163.5t57 144 t100.5 115t147 76t192 27.5q196 0 290.5 -91.5t94.5 -240.5q0 -80 -28 -156t-68 -133t-107.5 -121t-120.5 -105.5t-134 -101.5q-28 -20 -41 -30q-73 -54 -120 -92.5t-97 -89t-78 -102t-35 -105.5h645l-27 -162h-849z" />
<glyph unicode="3" horiz-adv-x="1140" d="M49 348q0 44 6 94l193 13q-4 -54 -4 -76q0 -125 53.5 -184.5t181.5 -59.5q149 0 236.5 95t87.5 247q0 124 -86 175.5t-258 45.5l8 152q89 1 163 18.5t134.5 55t94.5 102t34 152.5q0 92 -58.5 142t-168.5 50q-290 0 -293 -352l-187 -14q-5 107 23.5 200.5t89 167t162 116 t233.5 42.5q196 0 297 -88t101 -248q0 -87 -28.5 -158.5t-78 -120.5t-109 -81t-128.5 -48q128 -28 190.5 -110.5t62.5 -200.5t-42.5 -214t-116 -158t-170 -95t-207.5 -33q-222 0 -319 98t-97 275z" />
<glyph unicode="4" horiz-adv-x="1128" d="M-2 322l20 131l781 1050h217l-160 -1016h186l-26 -165h-187l-51 -322h-190l49 322h-639zM227 487h437l116 748h-8z" />
<glyph unicode="5" horiz-adv-x="1146" d="M74 442l188 13q-29 -320 230 -320q87 0 154 41.5t104.5 109.5t56 142.5t18.5 151.5q0 256 -219 256q-93 0 -174 -47t-133 -117l-145 16l176 815h780l-27 -162h-618l-115 -483q61 61 146 99t184 38q158 0 252 -100t94 -289q0 -181 -64 -322.5t-191.5 -225t-301.5 -83.5 q-116 0 -199 35.5t-128 99.5t-61.5 147t-6.5 185z" />
<glyph unicode="6" horiz-adv-x="1216" d="M123 436q0 104 18 236q130 858 682 858q174 0 254 -82t80 -219q0 -68 -14 -131l-185 -17q15 67 15 117q0 174 -172 174q-167 0 -271.5 -137t-173.5 -451q74 82 176 120t207 38q160 0 254 -99.5t94 -279.5q0 -163 -64.5 -295t-193.5 -212.5t-303 -80.5 q-208 0 -305.5 114.5t-97.5 346.5zM303 395q0 -55 10.5 -98.5t36.5 -82.5t76.5 -60t122.5 -21q82 0 148.5 36.5t107.5 97.5t62.5 135.5t21.5 154.5q0 238 -238 238q-159 0 -253.5 -111.5t-94.5 -288.5z" />
<glyph unicode="7" horiz-adv-x="966" d="M176 0q65 396 231 724.5t429 616.5h-648l27 162h856l-20 -123q-149 -161 -261 -327t-189.5 -339.5t-127.5 -341.5t-90 -372h-207z" />
<glyph unicode="8" horiz-adv-x="1230" d="M63 362q0 326 353 459q-88 34 -131 106.5t-43 170.5q0 137 73.5 237t188.5 147.5t254 47.5q106 0 184 -26t122 -71.5t64.5 -100.5t20.5 -120q0 -134 -80.5 -238t-212.5 -155q238 -82 238 -315q0 -165 -76.5 -286t-208 -182t-301.5 -61q-445 0 -445 387zM262 377 q0 -242 260 -242q167 0 272 96t105 273q0 108 -65.5 174.5t-200.5 66.5q-162 0 -266.5 -101t-104.5 -267zM434 1085q0 -196 215 -196q138 0 218.5 86.5t80.5 222.5q0 180 -215 180q-141 0 -220 -79.5t-79 -213.5z" />
<glyph unicode="9" horiz-adv-x="1216" d="M86 309q0 55 8 99l187 16q-5 -34 -5 -76q0 -115 47 -165t150 -50q162 0 262 138t166 450q-143 -158 -379 -158q-164 0 -258 99t-94 278q0 123 38 230.5t107.5 187.5t175.5 126t234 46q208 0 308 -113t100 -350q0 -97 -19 -233q-57 -427 -215.5 -643t-435.5 -216 q-196 0 -286.5 91t-90.5 243zM367 954q0 -243 235 -243q160 0 257 110.5t97 280.5q0 270 -249 270q-160 0 -250 -116.5t-90 -301.5z" />
<glyph unicode=":" horiz-adv-x="462" d="M29 0l37 242h202l-39 -242h-200zM156 815l39 242h200l-37 -242h-202z" />
<glyph unicode=";" horiz-adv-x="413" d="M-20 -242l96 242h-62l39 242h213l-35 -209l-163 -301zM156 815l39 242h200l-37 -242h-202z" />
<glyph unicode="&#x3c;" horiz-adv-x="1187" d="M172 487l29 187l839 315l-26 -166l-684 -245l610 -228l-25 -151z" />
<glyph unicode="=" horiz-adv-x="1187" d="M160 414l22 135h789l-23 -135h-788zM209 719l22 133h789l-23 -133h-788z" />
<glyph unicode="&#x3e;" horiz-adv-x="1187" d="M127 199l25 170l686 243l-611 228l25 149l743 -289l-30 -186z" />
<glyph unicode="?" horiz-adv-x="1054" d="M158 1083q12 91 42 166.5t84 141t143.5 102.5t207.5 37q186 0 279.5 -102.5t93.5 -278.5q0 -235 -124 -383t-345 -180l-43 -193h-181l41 322q126 2 214.5 33.5t139.5 90t74 135t23 177.5q0 219 -193 219q-64 0 -112 -21t-79.5 -62.5t-51.5 -93t-35 -122.5zM238 0l38 242 h201l-37 -242h-202z" />
<glyph unicode="@" horiz-adv-x="1705" d="M47 260q0 199 64 366.5t181 286t287.5 184.5t376.5 66q191 0 331.5 -60t222 -187t81.5 -310q0 -85 -14.5 -168t-49 -164t-84.5 -142t-127.5 -98.5t-172.5 -37.5q-140 0 -201 121q-104 -133 -278 -133q-250 0 -250 274q0 80 18 159t56 150.5t91 126t128.5 87t162.5 32.5 q140 0 193 -104l39 92h135l-137 -502q-19 -59 -19 -98q0 -92 105 -92q57 0 103.5 35.5t74 88.5t46 121.5t25.5 128.5t7 115q0 227 -126.5 332.5t-379.5 105.5q-162 0 -299 -56.5t-233.5 -158t-150.5 -245.5t-54 -314q0 -126 38 -219.5t109 -149.5t166.5 -83t218.5 -27 q137 0 253.5 38t197.5 105l65 -106q-193 -168 -549 -168q-308 0 -479.5 153.5t-171.5 454.5zM571 258q0 -76 30.5 -115t100.5 -39q80 0 148.5 50.5t97.5 148.5l68 244q19 77 -25 114t-117 37q-76 0 -136.5 -41.5t-95.5 -108t-53 -141t-18 -149.5z" />
<glyph unicode="A" d="M-94 0l749 1503h265l280 -1503h-203l-77 412h-607l-202 -412h-205zM387 569h508l-135 752h-8z" />
<glyph unicode="B" horiz-adv-x="1273" d="M84 0l238 1503h466q420 0 420 -321q0 -72 -21.5 -133.5t-57 -104.5t-83.5 -76.5t-97 -53.5t-101 -30v-4q150 -16 224.5 -100.5t74.5 -208.5q0 -101 -30 -181.5t-82.5 -134t-128 -89t-162.5 -51t-189 -15.5h-471zM309 160h156q63 0 110 2.5t99.5 10t89.5 21t72.5 37 t57.5 56t35 79t13 105.5q0 124 -85.5 171.5t-278.5 47.5h-187zM416 846h116q38 0 72 2t83 9.5t89.5 20t83 37t71.5 56.5t47.5 81.5t18.5 110.5q0 93 -57 136.5t-205 43.5h-239z" />
<glyph unicode="C" d="M104 518q0 145 25.5 284t84.5 272.5t145 233.5t217.5 161t291.5 61q199 0 307.5 -110.5t108.5 -301.5q0 -62 -12 -133l-195 -16q10 59 10 125q0 270 -241 270q-96 0 -177 -39t-138 -106t-100 -151.5t-68 -181t-37.5 -188t-12.5 -178.5q0 -194 73 -287.5t228 -93.5 q148 0 246.5 98t136.5 271l191 -16q-56 -265 -211 -391t-385 -126q-241 0 -364.5 137t-123.5 406z" />
<glyph unicode="D" horiz-adv-x="1341" d="M82 0l237 1503h263q359 0 520.5 -133.5t161.5 -417.5q0 -224 -46 -394t-147 -297.5t-271.5 -194t-408.5 -66.5h-309zM307 162h94q180 0 308.5 55t204.5 161t110.5 248t34.5 330q0 201 -106.5 293t-352.5 92h-106z" />
<glyph unicode="E" horiz-adv-x="1140" d="M82 0l237 1503h816l-27 -162h-614l-76 -489h545l-25 -160h-547l-84 -530h662l-25 -162h-862z" />
<glyph unicode="F" horiz-adv-x="1071" d="M82 0l237 1503h811l-26 -162h-610l-80 -512h530l-24 -159h-531l-106 -670h-201z" />
<glyph unicode="G" horiz-adv-x="1390" d="M109 520q0 102 13 202.5t41.5 200.5t71 189t104.5 165.5t137.5 132t175.5 87t214 31.5q204 0 310 -106.5t106 -301.5q0 -64 -12 -135l-193 -16q10 75 10 123q0 272 -239 272q-96 0 -177.5 -38.5t-138.5 -105t-100 -150.5t-68 -179.5t-37 -186.5t-12 -178q0 -387 301 -387 q71 0 137 24.5t121.5 70.5t95 120t54.5 166l10 64h-334l27 159h514l-121 -768h-149l16 207q-145 -207 -407 -207q-232 0 -351.5 137.5t-119.5 407.5z" />
<glyph unicode="H" horiz-adv-x="1427" d="M84 0l238 1503h200l-106 -667h655l105 667h202l-237 -1503h-203l106 666h-655l-104 -666h-201z" />
<glyph unicode="I" horiz-adv-x="745" d="M14 0l23 145h153l193 1213h-154l23 145h514l-25 -145h-157l-193 -1213h160l-23 -145h-514z" />
<glyph unicode="J" horiz-adv-x="1089" d="M18 332q0 35 7 100l194 19q-8 -62 -8 -95q0 -45 8.5 -80t29 -66.5t61.5 -49t100 -17.5q60 0 104.5 17t71.5 42.5t47 70t29.5 84t19.5 100.5l168 1046h201l-170 -1077q-9 -54 -19.5 -98t-29.5 -92t-43 -84.5t-61.5 -71t-84 -57t-110 -35.5t-140.5 -13q-185 0 -280 92 t-95 265z" />
<glyph unicode="K" horiz-adv-x="1277" d="M84 0l238 1503h200l-114 -717l722 717h232l-635 -633l434 -870h-225l-363 719l-208 -207l-80 -512h-201z" />
<glyph unicode="L" horiz-adv-x="1052" d="M84 0l238 1503h200l-213 -1341h592l-24 -162h-793z" />
<glyph unicode="M" horiz-adv-x="1759" d="M84 0l238 1503h294l193 -1272h10l592 1272h297l-238 -1503h-188l199 1251h-8l-599 -1251h-192l-203 1253h-10l-199 -1253h-186z" />
<glyph unicode="N" horiz-adv-x="1437" d="M84 0l238 1503h256l423 -1222h9l194 1222h182l-237 -1503h-231l-447 1239h-8l-195 -1239h-184z" />
<glyph unicode="O" horiz-adv-x="1402" d="M106 520q0 154 26 296.5t84.5 274t144.5 228t214.5 154t286.5 57.5q234 0 351.5 -139t117.5 -406q0 -108 -13 -211.5t-41 -204.5t-69 -189t-102 -163t-135 -128.5t-171.5 -83.5t-209.5 -30q-484 0 -484 545zM313 528q0 -196 72.5 -292.5t235.5 -96.5q82 0 152.5 31.5 t120.5 84t90.5 124t65.5 148t42 159t23.5 154t6.5 137.5q0 192 -67 290.5t-215 98.5q-86 0 -159.5 -30t-126.5 -80.5t-95 -120t-69 -144.5t-45 -158.5t-25 -158t-7 -146.5z" />
<glyph unicode="P" horiz-adv-x="1236" d="M84 0l238 1503h444q109 0 192.5 -24t132 -61t79 -90t41 -103.5t10.5 -108.5q0 -82 -19.5 -157t-67 -146.5t-118 -123.5t-180.5 -84t-248 -32h-215l-88 -573h-201zM397 729h197q198 0 309 95t111 298q0 106 -64.5 163.5t-214.5 57.5h-239z" />
<glyph unicode="Q" horiz-adv-x="1404" d="M106 520q0 154 26 296.5t84.5 274t144.5 228t214.5 154t286.5 57.5q234 0 351.5 -139t117.5 -406q0 -180 -34.5 -343.5t-114.5 -309.5t-197 -234l129 -346l-158 -69l-163 321q-98 -29 -203 -29q-484 0 -484 545zM313 528q0 -196 72.5 -292.5t235.5 -96.5q82 0 152.5 31.5 t120.5 84t90.5 124t65.5 148t42 159t23.5 154t6.5 137.5q0 192 -67 290.5t-215 98.5q-86 0 -159.5 -30t-126.5 -80.5t-95 -120t-69 -144.5t-45 -158.5t-25 -158t-7 -146.5z" />
<glyph unicode="R" horiz-adv-x="1267" d="M84 0l238 1503h477q98 0 173.5 -20.5t122.5 -54.5t77 -82.5t41.5 -99t11.5 -109.5q0 -83 -20.5 -154t-64 -133t-120 -107.5t-180.5 -68.5l239 -674h-219l-225 649h-39h-211l-100 -649h-201zM412 807h196q89 0 157 13.5t127.5 47t91.5 98t32 158.5q0 112 -65.5 165.5 t-215.5 53.5h-239z" />
<glyph unicode="S" horiz-adv-x="1191" d="M29 440l204 31q-1 -24 -1 -45q0 -52 6 -92q10 -56 40 -102t90 -68.5t152 -22.5q154 0 248 83.5t94 226.5q0 51 -18 89t-56 64t-80.5 43t-105.5 33q-53 13 -91 24t-85 29t-79.5 37t-66 47.5t-53.5 61.5t-32.5 78t-12.5 98q0 118 44.5 211t121 149.5t172 85.5t203.5 29 q230 0 339 -120q97 -106 96 -286q0 -23 -1 -47l-196 -28q1 20 1 39q0 128 -54 198q-62 80 -201 80t-225.5 -71.5t-86.5 -196.5q0 -42 12 -75t29.5 -54.5t51 -40.5t63.5 -30t80 -26q16 -5 50 -15q75 -22 114.5 -36t102 -46t94.5 -68.5t57.5 -97.5t25.5 -138 q0 -120 -46.5 -216t-126 -156.5t-182 -92t-218.5 -31.5q-253 -1 -370 115q-104 103 -104 301q0 24 1 49z" />
<glyph unicode="T" horiz-adv-x="1118" d="M139 1341l27 162h1057l-27 -162h-428l-211 -1341h-201l211 1341h-428z" />
<glyph unicode="U" horiz-adv-x="1439" d="M143 399q0 62 13 138l153 966h201l-148 -932q-14 -80 -14 -153q0 -145 71 -211t222 -66q181 0 277 97.5t131 320.5l151 944h201l-158 -993q-84 -535 -620 -535q-244 0 -362 110t-118 314z" />
<glyph unicode="V" horiz-adv-x="1265" d="M135 1503h203l221 -1321h8l629 1321h205l-739 -1503h-256z" />
<glyph unicode="W" horiz-adv-x="1894" d="M158 1503h202l80 -1323h9l522 1323h213l119 -1323h8l495 1323h201l-602 -1503h-256l-111 1227h-8l-483 -1227h-262z" />
<glyph unicode="X" horiz-adv-x="1230" d="M-86 0l588 786l-332 717h215l254 -583h2l432 583h225l-553 -723l361 -780h-215l-287 629h-2l-457 -629h-231z" />
<glyph unicode="Y" horiz-adv-x="1167" d="M129 1503h217l252 -747l492 747h221l-641 -936l-88 -567h-199l90 569z" />
<glyph unicode="Z" horiz-adv-x="1126" d="M-37 0l23 152l938 1189h-725l24 162h961l-25 -151l-942 -1190h754l-25 -162h-983z" />
<glyph unicode="[" horiz-adv-x="618" d="M-8 -270l297 1874h411l-22 -129l-221 -5l-254 -1605l223 -6l-18 -129h-416z" />
<glyph unicode="\" horiz-adv-x="641" d="M154 1563l157 24l203 -1755l-156 -29z" />
<glyph unicode="]" horiz-adv-x="618" d="M-84 -270l23 129l221 4l254 1605l-224 7l19 129h416l-297 -1874h-412z" />
<glyph unicode="^" horiz-adv-x="940" d="M86 786l473 760h139l199 -758l-149 -53l-150 596h-4l-365 -596z" />
<glyph unicode="_" horiz-adv-x="901" d="M-141 -254l22 148h899l-22 -148h-899z" />
<glyph unicode="`" horiz-adv-x="1024" d="M403 1440l125 106l213 -315l-79 -68z" />
<glyph unicode="a" horiz-adv-x="1112" d="M33 229q0 54 14.5 99.5t37 79.5t60.5 62t75 46.5t91.5 33.5t99 23t108 14.5t107.5 9t109 5.5l8 51q9 70 9 88q0 193 -189 193q-66 0 -112 -13.5t-72 -35.5t-39.5 -57.5t-16.5 -69.5q-2 -20 -2 -46q0 -17 1 -36l-170 -14q-5 50 -5 59q0 164 109.5 258t325.5 94 q352 0 352 -323q0 -70 -14 -156l-62 -393q-3 -18 -3 -33q1 -22 7 -34q12 -22 45 -21q11 0 51 8l-14 -119q-79 -14 -117 -14q-85 0 -114 38.5t-31 118.5q-56 -79 -148 -124.5t-208 -45.5q-147 0 -220 71t-73 183zM229 246q0 -70 41 -102.5t127 -32.5q109 0 196 75.5 t107 190.5l17 96q-65 -2 -107 -4.5t-98.5 -8.5t-92.5 -15.5t-75.5 -26.5t-62 -39.5t-37.5 -56.5t-15 -76z" />
<glyph unicode="b" horiz-adv-x="1148" d="M39 0l237 1503h189l-94 -588h10q51 66 141 112t199 46q153 0 243.5 -103.5t90.5 -287.5q0 -105 -19 -204.5t-60.5 -192t-101.5 -161.5t-149 -110t-197 -41q-96 0 -172 39.5t-116 108.5h-9l-53 -121h-139zM285 365q0 -250 229 -250q75 0 136 40t98.5 101t63.5 138t36 147 t10 133q0 260 -205 260q-68 0 -125 -26t-96.5 -71.5t-68.5 -102t-45.5 -122t-24.5 -127t-8 -120.5z" />
<glyph unicode="c" horiz-adv-x="1048" d="M59 387q0 103 22.5 201t69.5 186.5t114.5 154.5t163.5 105t210 39q182 0 269 -89t87 -234q0 -20 -4 -60l-170 -12q0 6 1 18.5t1 18.5q0 213 -194 213q-76 0 -140 -33.5t-107 -87.5t-73 -125t-43.5 -144.5t-13.5 -146.5q0 -148 56 -210t175 -62q106 0 175.5 65.5 t101.5 173.5l168 -14q-39 -180 -162 -274.5t-307 -94.5q-197 0 -298.5 105t-101.5 307z" />
<glyph unicode="d" horiz-adv-x="1146" d="M55 377q0 104 21 203t64.5 188.5t105.5 157.5t150.5 107.5t191.5 39.5q185 0 270 -147h8l90 577h187l-238 -1503h-151l-2 145h-11q-57 -80 -144.5 -125t-186.5 -45q-355 0 -355 402zM250 369q0 -138 52 -198t161 -60q79 0 142.5 36.5t103 94t66.5 132t37.5 145.5 t10.5 140q0 132 -46.5 203.5t-166.5 71.5q-79 0 -143 -38t-103.5 -97t-66 -136t-37 -150t-10.5 -144z" />
<glyph unicode="e" horiz-adv-x="1075" d="M57 395q0 104 20.5 201t65.5 184.5t109.5 152t158.5 102.5t207 38q178 0 271.5 -94t93.5 -268q0 -97 -31 -224h-702q-6 -44 -6 -88q0 -56 11 -102.5t35.5 -88t70.5 -64.5t110 -23q103 0 178 56t107 171l168 -18q-93 -355 -467 -355q-199 0 -299.5 111t-100.5 309z M272 616h527q10 65 10 109q0 99 -51 154t-156 55q-133 0 -219 -91.5t-111 -226.5z" />
<glyph unicode="f" horiz-adv-x="641" d="M74 0l141 907h-125l21 142h129l26 165q22 142 106.5 228t241.5 86q101 0 197 -33l-39 -137q-82 24 -141 24q-86 0 -126.5 -48t-60.5 -173l-16 -112h248l-21 -142h-249l-144 -907h-188z" />
<glyph unicode="g" horiz-adv-x="1146" d="M8 -133l176 41q14 -79 59.5 -120.5t153.5 -41.5q147 0 225.5 73t104.5 238l16 107h-8q-51 -68 -139 -113t-203 -45q-156 0 -244 101.5t-88 304.5q0 132 32.5 249t95 210t163.5 147.5t228 54.5q204 0 282 -147h8l41 123h158l-156 -994q-35 -231 -162.5 -342.5 t-355.5 -111.5q-173 0 -271.5 63t-115.5 203zM256 422q0 -152 55 -215.5t152 -63.5q81 0 145.5 36.5t103.5 93t65 130.5t36 143t10 138q0 248 -223 248q-75 0 -135.5 -34.5t-98.5 -88t-63.5 -123t-36 -135.5t-10.5 -129z" />
<glyph unicode="h" horiz-adv-x="1153" d="M39 0l237 1503h189l-96 -600h8q125 170 340 170q161 0 235 -86t74 -233q0 -51 -10 -123l-101 -631h-188l96 612q11 72 11 117q0 197 -181 197q-74 0 -134.5 -30t-100 -81t-65 -111t-36.5 -129l-88 -575h-190z" />
<glyph unicode="i" horiz-adv-x="473" d="M39 0l164 1049h190l-164 -1049h-190zM242 1284l34 219h191l-37 -219h-188z" />
<glyph unicode="j" horiz-adv-x="475" d="M-293 -369l39 138q81 -23 125 -23q74 0 111 46.5t57 176.5l170 1080h188l-172 -1084q-31 -196 -109 -280t-229 -84q-105 0 -180 30zM246 1284l37 219h188l-35 -219h-190z" />
<glyph unicode="k" horiz-adv-x="1036" d="M39 0l237 1503h191l-141 -887l489 433h221l-415 -367l292 -682h-204l-234 553l-186 -164l-60 -389h-190z" />
<glyph unicode="l" horiz-adv-x="473" d="M39 0l237 1503h191l-238 -1503h-190z" />
<glyph unicode="m" horiz-adv-x="1767" d="M39 0l164 1049h170l-13 -152h9q127 176 329 176q235 0 279 -213q127 213 371 213q152 0 221 -85.5t69 -233.5q0 -51 -10 -123l-98 -631h-191l99 612q10 68 10 121q0 193 -162 193q-68 0 -124.5 -30t-95 -81t-62.5 -111.5t-35 -128.5l-88 -575h-191l96 612q8 40 10 72 q2 27 2 58v12q0 38 -10 67t-27 54t-49 38t-75 13q-68 0 -125 -30t-95.5 -81t-63.5 -111.5t-36 -128.5l-88 -575h-190z" />
<glyph unicode="n" horiz-adv-x="1153" d="M39 0l164 1049h170l-13 -152h9q127 176 348 176q161 0 235 -86t74 -233q0 -51 -10 -123l-101 -631h-188l96 612q11 72 11 117q0 197 -181 197q-74 0 -134.5 -30t-100 -81t-65 -111t-36.5 -129l-88 -575h-190z" />
<glyph unicode="o" horiz-adv-x="1132" d="M57 377q0 147 37 272.5t107.5 220.5t183 149t254.5 54q196 0 297.5 -103.5t101.5 -297.5q0 -115 -22.5 -218t-69.5 -191t-115 -152t-163.5 -100t-210.5 -36q-196 0 -298 104t-102 298zM250 385q0 -264 225 -264q82 0 147.5 35t106.5 90.5t68 129t38 144.5t11 142 q0 81 -19 137.5t-70.5 92.5t-135.5 36q-82 0 -148 -35.5t-107 -90.5t-68 -129t-37.5 -145t-10.5 -143z" />
<glyph unicode="p" horiz-adv-x="1148" d="M-20 -375l223 1424h166l-9 -144h9q58 81 144.5 124.5t188.5 43.5q167 0 260 -95.5t93 -315.5q0 -129 -34.5 -250t-98.5 -219.5t-167.5 -158t-230.5 -59.5q-102 0 -173.5 43t-100.5 105h-8l-76 -498h-186zM285 389q0 -274 219 -274q79 0 142 38.5t101.5 97.5t64.5 136 t36 148.5t10 140.5q0 141 -51.5 201.5t-159.5 60.5q-78 0 -141.5 -36.5t-103.5 -94.5t-67.5 -132.5t-38.5 -145.5t-11 -140z" />
<glyph unicode="q" horiz-adv-x="1144" d="M53 369q0 87 13.5 170.5t40.5 163t70.5 146t100 117t133.5 79t167 28.5q201 0 282 -147h8l41 123h160l-225 -1424h-187l78 508h-8q-51 -66 -141.5 -112t-200.5 -46q-157 0 -244.5 103.5t-87.5 290.5zM248 383q0 -147 55 -207.5t152 -60.5q59 0 109.5 20.5t87.5 54.5 t66.5 81t49 98t32 107.5t18 107.5t5.5 100q0 248 -229 248q-74 0 -135 -38t-99.5 -97t-64.5 -134t-36.5 -145t-10.5 -135z" />
<glyph unicode="r" horiz-adv-x="897" d="M39 0l164 1049h170l-13 -152h9q109 176 309 176q101 0 156 -48.5t55 -147.5q0 -65 -31 -170l-176 -9q23 90 23 131q0 52 -25 73.5t-78 21.5q-67 0 -120.5 -38t-87.5 -104t-55 -137t-34 -156l-76 -489h-190z" />
<glyph unicode="s" horiz-adv-x="976" d="M16 299l174 29v-21q0 -37 6 -65q8 -36 29 -65.5t62.5 -43.5t105.5 -14q126 0 193 45t67 135q0 52 -29 85t-75 48.5t-101.5 26t-111 26.5t-101.5 42t-75 79.5t-29 132.5q0 85 34.5 151t95 105t134.5 58.5t160 19.5q178 0 264 -80q80 -75 80 -212v-19l-168 -31v13 q-1 93 -41 140q-44 50 -147 50q-105 0 -168.5 -40t-63.5 -124q0 -46 22.5 -78t60 -47.5t85 -29.5t97 -23t97 -28.5t85 -46.5t60 -76.5t22.5 -118.5q0 -111 -63.5 -191t-165 -118t-228.5 -38q-187 0 -280 80q-87 75 -87 224v20z" />
<glyph unicode="t" horiz-adv-x="698" d="M90 907l21 142h129l34 227l199 59l-45 -286h248l-21 -142h-249l-97 -604q-6 -43 -6 -76q0 -56 26.5 -81t92.5 -25q55 0 141 24l-2 -139q-91 -31 -194 -31q-252 0 -252 230q0 53 8 100l94 602h-127z" />
<glyph unicode="u" horiz-adv-x="1124" d="M82 276q0 53 10 125l103 648h190l-98 -613q-13 -80 -13 -133q0 -86 37.5 -133t132.5 -47q68 0 125.5 30t96.5 80.5t65 111t37 128.5l88 576h191l-164 -1049h-170l12 152h-8q-127 -177 -334 -177q-301 0 -301 301z" />
<glyph unicode="v" horiz-adv-x="960" d="M82 1049h197l129 -844h8l391 844h203l-537 -1049h-192z" />
<glyph unicode="w" horiz-adv-x="1597" d="M90 1049h193l98 -834h10l369 834h209l108 -834h10l357 834h194l-493 -1049h-199l-108 856h-9l-378 -856h-199z" />
<glyph unicode="x" horiz-adv-x="1007" d="M-74 0l436 549l-260 500h205l182 -381h3l299 381h208l-415 -510l288 -539h-206l-209 410h-2l-316 -410h-213z" />
<glyph unicode="y" horiz-adv-x="948" d="M-127 -373l41 131q67 -18 113 -18q39 0 68.5 13t58 46.5t52 74.5t60.5 114l10 20l-192 1041h201l114 -832h11l387 832h198l-536 -1051q-40 -80 -66.5 -127.5t-59.5 -98.5t-62 -78t-67 -51t-81 -33t-98 -9q-85 0 -152 26z" />
<glyph unicode="z" horiz-adv-x="894" d="M-47 0l20 131l680 776h-534l22 142h760l-20 -131l-684 -775h565l-23 -143h-786z" />
<glyph unicode="{" horiz-adv-x="727" d="M53 598l19 107q194 25 225 202l59 379q14 90 41.5 148.5t77.5 95t117.5 52.5t169.5 20l4 -84q-106 -23 -153.5 -60.5t-57.5 -109.5l-68 -404q-10 -60 -22 -98.5t-36.5 -78t-67 -66t-105.5 -42.5v-4q109 -18 137.5 -78.5t9.5 -177.5l-65 -417q-11 -71 20.5 -106t139.5 -62 l-29 -78q-86 2 -146 16t-104.5 45t-60 86t-2.5 135l63 396q12 75 -28.5 129t-137.5 55z" />
<glyph unicode="|" horiz-adv-x="509" d="M-10 -492l325 2048h166l-325 -2048h-166z" />
<glyph unicode="}" horiz-adv-x="727" d="M-33 -180q106 23 153.5 60.5t57.5 109.5l68 403q10 60 22 98.5t36.5 78t67 66t105.5 42.5v4q-109 18 -137.5 78.5t-9.5 177.5l65 418q11 71 -20.5 106t-138.5 62l28 78q86 -2 146 -16t104.5 -45t60.5 -86.5t3 -135.5l-64 -395q-12 -75 28.5 -129.5t137.5 -55.5l-18 -106 q-195 -25 -226 -203l-59 -379q-14 -90 -41.5 -148.5t-77.5 -94.5t-117.5 -52t-169.5 -20z" />
<glyph unicode="~" horiz-adv-x="1024" d="M78 508q46 89 115 145t151 56q72 0 186 -50q110 -49 154 -49q83 0 158 111l86 -59q-48 -83 -115 -138t-143 -55t-189 51q-113 47 -155 47q-49 0 -87.5 -31.5t-76.5 -89.5z" />
<glyph unicode="&#xa1;" horiz-adv-x="600" d="M41 -432l186 1083h183l-156 -1083h-213zM246 829l37 242h202l-36 -242h-203z" />
<glyph unicode="&#xa2;" horiz-adv-x="1052" d="M98 563q0 88 15 174q17 98 53.5 182t92 154t136.5 117t180 63l29 172h160l-27 -165q148 -14 222.5 -102.5t74.5 -219.5q0 -19 -4 -59l-170 -13q0 4 1 18t1 21q0 183 -147 207l-127 -795q154 38 211 232l168 -14q-37 -162 -143.5 -255.5t-258.5 -111.5l-26 -168h-160 l27 170q-151 25 -229.5 125.5t-78.5 267.5zM291 563q0 -102 32.5 -162.5t104.5 -81.5l123 777q-97 -35 -159 -131.5t-87 -229.5q-14 -80 -14 -172z" />
<glyph unicode="&#xa3;" horiz-adv-x="1052" d="M10 0l27 162q150 129 221.5 221.5t71.5 179.5q0 46 -19 109h-248l23 151h150q-62 115 -62 238q0 211 148 340t372 129q178 0 280.5 -85.5t102.5 -242.5q0 -87 -33 -190l-178 14q27 94 27 164q0 99 -55 140.5t-160 41.5q-132 0 -219.5 -78.5t-87.5 -222.5q0 -51 12 -98.5 t25 -76.5t38 -73h394l-23 -151h-309q8 -50 8 -76q0 -111 -65 -208t-211 -226h665l-24 -162h-871z" />
<glyph unicode="&#xa5;" horiz-adv-x="1091" d="M135 1503h215l225 -639l433 639h219l-488 -674h166l-20 -145h-234l-22 -143h231l-22 -146h-232l-61 -395h-201l62 395h-259l23 146h258l23 143h-258l22 145h188z" />
<glyph unicode="&#xa6;" horiz-adv-x="509" d="M-10 -492l145 912h166l-145 -912h-166zM170 645l145 911h166l-145 -911h-166z" />
<glyph unicode="&#xa7;" horiz-adv-x="1286" d="M20 -23l191 25q-6 -118 57 -178t205 -60q55 0 107 13t99 39.5t76 74t29 109.5q0 61 -38 102.5t-98.5 64.5t-133.5 40.5t-146 38.5t-133.5 50.5t-98.5 84.5t-38 133q0 112 67 193t210 157q-105 91 -105 221q0 85 30 155.5t80.5 118.5t118.5 81t143.5 48t156.5 15 q210 0 324.5 -96.5t97.5 -278.5l-187 -22q3 121 -57.5 183.5t-202.5 62.5q-53 0 -102.5 -11.5t-94.5 -36t-72.5 -71t-27.5 -109.5q0 -64 37.5 -108t97 -68t132 -43t145 -39.5t132 -48.5t97 -80.5t37.5 -126.5q0 -219 -270 -364q53 -42 79.5 -92t26.5 -119q0 -105 -45.5 -188 t-122 -134t-171.5 -77.5t-199 -26.5q-214 0 -328.5 95t-104.5 273zM303 561q0 -42 20 -73.5t51 -50t79 -34.5t93.5 -26t106 -26t105.5 -32q196 100 196 240q0 46 -26 77.5t-76 51.5t-101.5 33.5t-125.5 32.5t-125 39q-197 -103 -197 -232z" />
<glyph unicode="&#xa8;" horiz-adv-x="1024" d="M354 1253l31 201h170l-31 -201h-170zM690 1253l31 201h170l-31 -201h-170z" />
<glyph unicode="&#xa9;" horiz-adv-x="1652" d="M104 651q0 167 56 304.5t154 229t230.5 141.5t284.5 50q333 0 525 -188t192 -506q0 -161 -53 -296.5t-147 -230t-229 -147.5t-294 -53q-176 0 -314.5 53t-226 147.5t-133 220.5t-45.5 275zM254 653q0 -265 152.5 -417t422.5 -152q267 0 419.5 158t152.5 434 q0 272 -156.5 421.5t-415.5 149.5q-257 0 -416 -158.5t-159 -435.5zM473 666q0 186 97 300.5t270 114.5q60 0 110.5 -15t92.5 -46.5t68 -87t30 -129.5l-119 -19q-9 94 -52.5 139.5t-129.5 45.5q-105 0 -167.5 -74t-62.5 -229q0 -126 54.5 -208.5t164.5 -82.5q96 0 143.5 47 t67.5 139l113 -18q-12 -79 -44.5 -136.5t-78.5 -88.5t-94 -44.5t-102 -13.5q-182 0 -271.5 111t-89.5 295z" />
<glyph unicode="&#xaa;" horiz-adv-x="759" d="M121 1004q0 45 15.5 81t46.5 61t69.5 42.5t93 28.5t106.5 17.5t121 10.5l5 25q4 32 4 45q0 104 -113 104q-71 0 -102 -34.5t-29 -94.5l-143 -14q-6 115 69 184.5t228 69.5q131 0 185 -55.5t54 -151.5q0 -41 -6 -88l-37 -234q-3 -26 4 -38.5t31 -12.5q7 0 31 4l-13 -96 q-65 -10 -96 -10q-55 0 -78 24t-26 72q-79 -102 -234 -102q-101 0 -143.5 45.5t-42.5 116.5zM281 1026q0 -82 94 -82q63 0 114 40t60 103l8 66q-154 -6 -215 -38t-61 -89z" />
<glyph unicode="&#xab;" horiz-adv-x="862" d="M53 514l326 399l102 -51l-252 -362l144 -344l-121 -56zM373 514l325 399l103 -51l-252 -362l143 -344l-121 -56z" />
<glyph unicode="&#xac;" horiz-adv-x="1187" d="M190 604l21 135h788l-20 -135l-41 -260h-147l40 260h-641z" />
<glyph unicode="&#xad;" horiz-adv-x="700" d="M49 502l25 155h555l-25 -155h-555z" />
<glyph unicode="&#xae;" horiz-adv-x="913" d="M135 1118q0 174 110.5 279.5t274.5 105.5q176 0 279.5 -101t103.5 -269q0 -170 -107.5 -276.5t-277.5 -106.5q-184 0 -283.5 102.5t-99.5 265.5zM227 1120q0 -135 78 -212t215 -77q136 0 215.5 79.5t79.5 215.5q0 141 -81.5 218t-213.5 77q-128 0 -210.5 -81t-82.5 -220z M393 936v391h144q131 0 131 -110q0 -79 -70 -105l100 -176h-82l-90 156h-55v-156h-78zM471 1151h27q44 0 67 12t23 49q0 32 -19 44t-57 12h-41v-117z" />
<glyph unicode="&#xaf;" horiz-adv-x="1024" d="M332 1274l22 135h555l-22 -135h-555z" />
<glyph unicode="&#xb0;" horiz-adv-x="622" d="M162 1296q0 105 68.5 165.5t166.5 60.5q103 0 163.5 -56.5t60.5 -156.5q0 -107 -64 -168.5t-170 -61.5q-105 0 -165 58.5t-60 158.5zM268 1300q0 -66 34 -97.5t91 -31.5q51 0 85 33t34 99q0 64 -34 95.5t-83 31.5q-54 0 -90.5 -32.5t-36.5 -97.5z" />
<glyph unicode="&#xb1;" horiz-adv-x="1187" d="M96 0l21 135h788l-20 -135h-789zM190 604l21 135h328l51 326h135l-51 -326h325l-20 -135h-328l-51 -328h-135l51 328h-326z" />
<glyph unicode="&#xb2;" horiz-adv-x="786" d="M127 799q10 82 31 145q20 63 68.5 122t105.5 101.5t119 87.5t112 83t82.5 86t32.5 98t-32 78t-89 28q-170 0 -170 -205l-151 -8q-10 143 78.5 237.5t263.5 94.5q135 0 199.5 -59t64.5 -162q0 -61 -26.5 -116.5t-70 -98t-96 -82t-107 -75.5t-100.5 -70.5t-78.5 -74.5 t-39.5 -81h405l-20 -129h-582z" />
<glyph unicode="&#xb3;" horiz-adv-x="796" d="M137 1028q0 29 2 45l156 10v-34q0 -71 31.5 -106.5t111.5 -35.5q70 0 125 44.5t55 140.5q0 71 -52 99.5t-169 25.5l4 118q269 4 269 189q0 104 -125 104q-174 0 -174 -203l-154 -10q-8 144 80 238t264 94q275 0 275 -211q0 -99 -65 -162.5t-161 -87.5q86 -22 128 -75 t42 -119q0 -143 -104 -225.5t-254 -82.5q-285 0 -285 244z" />
<glyph unicode="&#xb4;" horiz-adv-x="1024" d="M463 1235l303 313l106 -114l-342 -271z" />
<glyph unicode="&#xb5;" horiz-adv-x="1292" d="M61 -360l222 1409h190l-104 -650q-9 -88 -9 -108q0 -79 35.5 -123.5t122.5 -44.5q72 0 132.5 29.5t100.5 80.5t66 111.5t37 128.5l88 576h191l-164 -1049h-172l10 156h-6q-116 -160 -301 -170q-59 -3 -114 13.5t-89 43.5l-6 -6l-41 -397h-189z" />
<glyph unicode="&#xb6;" d="M152 911q0 272 161.5 432t458.5 160h154l-285 -1792h-168l125 778q-102 1 -180.5 25.5t-128 63.5t-81 94.5t-44 113.5t-12.5 125zM811 -287l285 1790h168l-285 -1790h-168z" />
<glyph unicode="&#xb7;" horiz-adv-x="462" d="M115 557l37 242h202l-37 -242h-202z" />
<glyph unicode="&#xb8;" horiz-adv-x="1024" d="M172 -344l82 70q45 -64 113 -64q48 0 78 25t30 71q0 64 -76 64q-25 0 -63 -21l-51 27l98 172h102l-65 -104q30 12 61 12q67 0 103.5 -36.5t36.5 -96.5q0 -101 -78.5 -160t-180.5 -59q-130 0 -190 100z" />
<glyph unicode="&#xb9;" horiz-adv-x="532" d="M182 1593q53 18 134 59.5t137 80.5h104l-147 -934h-160l119 743q-94 -48 -172 -74z" />
<glyph unicode="&#xba;" horiz-adv-x="798" d="M150 1098q0 56 8 100q24 150 125.5 241t265.5 91q126 0 196 -66.5t70 -195.5q0 -51 -4 -74q-20 -156 -119 -254t-268 -98q-133 0 -203.5 67t-70.5 189zM313 1108q0 -75 29.5 -112.5t99.5 -37.5q89 0 140.5 68t64.5 170q6 34 6 72q0 72 -29.5 109.5t-99.5 37.5 q-86 0 -137 -62.5t-68 -156.5q-6 -46 -6 -88z" />
<glyph unicode="&#xbb;" horiz-adv-x="862" d="M-18 152l251 362l-141 344l119 55l201 -413l-328 -400zM303 152l252 362l-141 344l118 55l201 -413l-327 -400z" />
<glyph unicode="&#xbc;" horiz-adv-x="1966" d="M240 1364q53 18 134 59t136 80h104l-147 -934h-160l119 744q-94 -48 -172 -74zM246 37l1161 1507l115 -69l-1166 -1514zM930 180l16 101l492 651h186l-98 -625h116l-20 -127h-117l-28 -180h-160l29 180h-416zM1102 307h266l68 441h-4z" />
<glyph unicode="&#xbd;" horiz-adv-x="1966" d="M250 1364q53 18 134 59t136 80h105l-148 -934h-160l119 744q-94 -48 -172 -74zM252 37l1161 1507l115 -69l-1166 -1514zM1038 0h582l20 129h-405q7 41 39.5 81t78.5 74.5t100.5 70.5t107 75.5t96 82t70 98t26.5 116.5q0 103 -64.5 162t-199.5 59q-175 0 -263.5 -94.5 t-78.5 -237.5l151 9q0 204 170 204q57 0 89 -28t32 -78t-32.5 -98t-82.5 -86t-112 -83t-119 -87.5t-105.5 -101.5t-68.5 -122q-21 -63 -31 -145z" />
<glyph unicode="&#xbe;" horiz-adv-x="1966" d="M164 799q0 -244 285 -244q150 0 254 82t104 225q0 67 -42 120t-128 75q96 24 160.5 87.5t64.5 162.5q0 211 -274 211q-176 0 -264 -94t-80 -238l153 10q0 203 174 203q125 0 125 -105q0 -184 -268 -188l-4 -119q117 3 169 -25.5t52 -99.5q0 -50 -17 -87.5t-44.5 -57.5 t-57 -29.5t-61.5 -9.5q-80 0 -111.5 35t-31.5 106v35l-156 -10q-2 -16 -2 -45zM422 37l1161 1507l115 -69l-1166 -1514zM1081 180l17 101l491 651h187l-99 -625h117l-20 -127h-117l-29 -180h-160l29 180h-416zM1253 307h267l67 441h-4z" />
<glyph unicode="&#xbf;" horiz-adv-x="1054" d="M23 -78q0 -176 93 -278.5t279 -102.5q118 0 207.5 37t143.5 102.5t84 141t42 166.5l-178 12q-15 -71 -35 -122.5t-51.5 -93t-79.5 -62.5t-112 -21q-193 0 -193 219q0 101 23 177.5t74 135t139.5 90t214.5 33.5l41 322h-180l-43 -193q-221 -32 -345 -180t-124 -383z M553 829l37 242h203l-39 -242h-201z" />
<glyph unicode="&#xc0;" d="M-94 0l749 1503h265l280 -1503h-203l-77 412h-607l-202 -412h-205zM387 569h508l-135 752h-8zM571 1743l95 141l313 -225l-64 -96z" />
<glyph unicode="&#xc1;" d="M-94 0l749 1503h265l280 -1503h-203l-77 412h-607l-202 -412h-205zM387 569h508l-135 752h-8zM631 1659l377 225l65 -143l-399 -180z" />
<glyph unicode="&#xc2;" d="M-94 0l749 1503h265l280 -1503h-203l-77 412h-607l-202 -412h-205zM387 569h508l-135 752h-8zM498 1636l288 240h109l211 -240l-68 -73l-211 168l-280 -168z" />
<glyph unicode="&#xc3;" d="M-94 0l749 1503h265l280 -1503h-203l-77 412h-607l-202 -412h-205zM387 569h508l-135 752h-8zM504 1620q36 103 88.5 147.5t107.5 44.5q58 0 140.5 -26.5t103.5 -26.5q57 0 88 76l96 -18q-37 -106 -89.5 -150.5t-104.5 -44.5q-61 0 -144 27.5t-104 27.5q-55 0 -86 -75z " />
<glyph unicode="&#xc4;" d="M-94 0l749 1503h265l280 -1503h-203l-77 412h-607l-202 -412h-205zM387 569h508l-135 752h-8zM539 1606l30 198h172l-32 -198h-170zM874 1606l31 198h172l-33 -198h-170z" />
<glyph unicode="&#xc5;" d="M-94 0l749 1503h265l280 -1503h-203l-77 412h-607l-202 -412h-205zM387 569h508l-135 752h-8zM612 1698q0 106 73 165.5t167 59.5q93 0 134.5 -40t41.5 -101q0 -107 -74.5 -165t-169.5 -58q-92 0 -132 39t-40 100zM733 1714q0 -34 15 -50.5t53 -16.5q42 0 72 32t30 88 q0 33 -15 50.5t-52 17.5q-44 0 -73.5 -32t-29.5 -89z" />
<glyph unicode="&#xc6;" horiz-adv-x="1861" d="M-94 0l786 1503h1161l-24 -162h-615l-81 -510h546l-24 -159h-547l-80 -510h662l-25 -162h-862l104 672h-458l-343 -672h-200zM524 831h408l82 510h-226z" />
<glyph unicode="&#xc7;" d="M104 518q0 145 25.5 284t84.5 272.5t145 233.5t217.5 161t291.5 61q199 0 307.5 -110.5t108.5 -301.5q0 -62 -12 -133l-195 -16q10 59 10 125q0 270 -241 270q-96 0 -177 -39t-138 -106t-100 -151.5t-68 -181t-37.5 -188t-12.5 -178.5q0 -194 73 -287.5t228 -93.5 q148 0 246.5 98t136.5 271l191 -16q-55 -255 -200 -380.5t-361 -134.5l-49 -81q30 12 61 12q67 0 103 -36.5t36 -96.5q0 -101 -78 -160t-180 -59q-130 0 -190 100l82 70q45 -64 112 -64q48 0 78.5 25t30.5 71q0 64 -76 64q-25 0 -63 -21l-52 27l86 149q-211 17 -317.5 153.5 t-106.5 387.5z" />
<glyph unicode="&#xc8;" horiz-adv-x="1140" d="M82 0l237 1503h816l-27 -162h-614l-76 -489h545l-25 -160h-547l-84 -530h662l-25 -162h-862zM520 1743l94 141l314 -225l-64 -96z" />
<glyph unicode="&#xc9;" horiz-adv-x="1140" d="M82 0l237 1503h816l-27 -162h-614l-76 -489h545l-25 -160h-547l-84 -530h662l-25 -162h-862zM578 1659l376 225l66 -143l-399 -180z" />
<glyph unicode="&#xca;" horiz-adv-x="1140" d="M82 0l237 1503h816l-27 -162h-614l-76 -489h545l-25 -160h-547l-84 -530h662l-25 -162h-862zM436 1636l289 240h109l210 -240l-67 -73l-211 168l-281 -168z" />
<glyph unicode="&#xcb;" horiz-adv-x="1140" d="M82 0l237 1503h816l-27 -162h-614l-76 -489h545l-25 -160h-547l-84 -530h662l-25 -162h-862zM485 1606l31 198h172l-33 -198h-170zM821 1606l31 198h172l-33 -198h-170z" />
<glyph unicode="&#xcc;" horiz-adv-x="745" d="M14 0l23 145h153l193 1213h-154l23 145h514l-25 -145h-157l-193 -1213h160l-23 -145h-514zM301 1743l94 141l314 -225l-64 -96z" />
<glyph unicode="&#xcd;" horiz-adv-x="745" d="M14 0l23 145h153l193 1213h-154l23 145h514l-25 -145h-157l-193 -1213h160l-23 -145h-514zM348 1659l377 225l66 -143l-400 -180z" />
<glyph unicode="&#xce;" horiz-adv-x="745" d="M14 0l23 145h153l193 1213h-154l23 145h514l-25 -145h-157l-193 -1213h160l-23 -145h-514zM219 1636l289 240h108l211 -240l-67 -73l-211 168l-281 -168z" />
<glyph unicode="&#xcf;" horiz-adv-x="745" d="M14 0l23 145h153l193 1213h-154l23 145h514l-25 -145h-157l-193 -1213h160l-23 -145h-514zM272 1606l31 198h172l-33 -198h-170zM608 1606l31 198h172l-33 -198h-170z" />
<glyph unicode="&#xd0;" horiz-adv-x="1341" d="M49 676l25 158h139l106 669h263q359 0 520.5 -133.5t161.5 -417.5q0 -224 -46 -394t-147 -297.5t-271.5 -194t-408.5 -66.5h-309l106 676h-139zM307 162h94q180 0 308.5 55t204.5 161t110.5 248t34.5 330q0 201 -106.5 293t-352.5 92h-106l-82 -507h403l-24 -158h-404z " />
<glyph unicode="&#xd1;" horiz-adv-x="1437" d="M84 0l238 1503h256l423 -1222h9l194 1222h182l-237 -1503h-231l-447 1239h-8l-195 -1239h-184zM567 1620q36 103 89 147.5t108 44.5q58 0 140.5 -26.5t103.5 -26.5q57 0 88 76l96 -18q-37 -106 -90 -150.5t-105 -44.5q-61 0 -143.5 27.5t-103.5 27.5q-55 0 -86 -75z" />
<glyph unicode="&#xd2;" horiz-adv-x="1402" d="M106 520q0 -545 484 -545q112 0 209.5 30t171.5 83.5t135 128.5t102 163t69 189t41 204.5t13 211.5q0 267 -117.5 406t-351.5 139q-158 0 -286.5 -57.5t-214.5 -154t-144.5 -228t-84.5 -274t-26 -296.5zM313 528q0 72 7 146.5t25 158t45 158.5t69 144.5t95 120 t126.5 80.5t159.5 30q148 0 215 -98.5t67 -290.5q0 -66 -6.5 -137.5t-23.5 -154t-42 -159t-65.5 -148t-90.5 -124t-120.5 -84t-152.5 -31.5q-163 0 -235.5 96.5t-72.5 292.5zM647 1743l94 141l314 -225l-64 -96z" />
<glyph unicode="&#xd3;" horiz-adv-x="1402" d="M106 520q0 -545 484 -545q112 0 209.5 30t171.5 83.5t135 128.5t102 163t69 189t41 204.5t13 211.5q0 267 -117.5 406t-351.5 139q-158 0 -286.5 -57.5t-214.5 -154t-144.5 -228t-84.5 -274t-26 -296.5zM313 528q0 72 7 146.5t25 158t45 158.5t69 144.5t95 120 t126.5 80.5t159.5 30q148 0 215 -98.5t67 -290.5q0 -66 -6.5 -137.5t-23.5 -154t-42 -159t-65.5 -148t-90.5 -124t-120.5 -84t-152.5 -31.5q-163 0 -235.5 96.5t-72.5 292.5zM690 1659l377 225l66 -143l-400 -180z" />
<glyph unicode="&#xd4;" horiz-adv-x="1402" d="M106 520q0 -545 484 -545q112 0 209.5 30t171.5 83.5t135 128.5t102 163t69 189t41 204.5t13 211.5q0 267 -117.5 406t-351.5 139q-158 0 -286.5 -57.5t-214.5 -154t-144.5 -228t-84.5 -274t-26 -296.5zM313 528q0 72 7 146.5t25 158t45 158.5t69 144.5t95 120 t126.5 80.5t159.5 30q148 0 215 -98.5t67 -290.5q0 -66 -6.5 -137.5t-23.5 -154t-42 -159t-65.5 -148t-90.5 -124t-120.5 -84t-152.5 -31.5q-163 0 -235.5 96.5t-72.5 292.5zM557 1636l289 240h108l211 -240l-67 -73l-211 168l-281 -168z" />
<glyph unicode="&#xd5;" horiz-adv-x="1402" d="M106 520q0 -545 484 -545q112 0 209.5 30t171.5 83.5t135 128.5t102 163t69 189t41 204.5t13 211.5q0 267 -117.5 406t-351.5 139q-158 0 -286.5 -57.5t-214.5 -154t-144.5 -228t-84.5 -274t-26 -296.5zM313 528q0 72 7 146.5t25 158t45 158.5t69 144.5t95 120 t126.5 80.5t159.5 30q148 0 215 -98.5t67 -290.5q0 -66 -6.5 -137.5t-23.5 -154t-42 -159t-65.5 -148t-90.5 -124t-120.5 -84t-152.5 -31.5q-163 0 -235.5 96.5t-72.5 292.5zM563 1620q36 103 89 147.5t108 44.5q58 0 140.5 -26.5t103.5 -26.5q57 0 88 76l96 -18 q-37 -106 -90 -150.5t-105 -44.5q-61 0 -144 27.5t-104 27.5q-55 0 -86 -75z" />
<glyph unicode="&#xd6;" horiz-adv-x="1402" d="M106 520q0 -545 484 -545q112 0 209.5 30t171.5 83.5t135 128.5t102 163t69 189t41 204.5t13 211.5q0 267 -117.5 406t-351.5 139q-158 0 -286.5 -57.5t-214.5 -154t-144.5 -228t-84.5 -274t-26 -296.5zM313 528q0 72 7 146.5t25 158t45 158.5t69 144.5t95 120 t126.5 80.5t159.5 30q148 0 215 -98.5t67 -290.5q0 -66 -6.5 -137.5t-23.5 -154t-42 -159t-65.5 -148t-90.5 -124t-120.5 -84t-152.5 -31.5q-163 0 -235.5 96.5t-72.5 292.5zM604 1606l31 198h172l-33 -198h-170zM940 1606l31 198h172l-33 -198h-170z" />
<glyph unicode="&#xd7;" horiz-adv-x="1024" d="M152 440l266 230l-195 231l111 96l194 -233l269 233l86 -104l-269 -231l189 -224l-111 -94l-188 221l-266 -231z" />
<glyph unicode="&#xd8;" horiz-adv-x="1402" d="M94 -47l119 176q-107 137 -107 391q0 154 26 296.5t84.5 274t144.5 228t214.5 154t286.5 57.5q148 0 256 -60l96 144l148 -74l-123 -182q92 -136 92 -373q0 -108 -13 -211.5t-41 -204.5t-69 -189t-102 -163t-135 -128.5t-171.5 -83.5t-209.5 -30q-138 0 -248 50 l-102 -152zM313 528q0 -126 29 -209l670 994q-65 53 -172 53q-86 0 -159.5 -30t-126.5 -80.5t-95 -120t-69 -144.5t-45 -158.5t-25 -158t-7 -146.5zM446 180q64 -41 175 -41q82 0 152.5 31.5t120.5 84t90.5 124t65.5 148t42 159t23.5 154t6.5 137.5q0 101 -18 178z" />
<glyph unicode="&#xd9;" horiz-adv-x="1439" d="M143 399q0 62 13 138l153 966h201l-148 -932q-14 -80 -14 -153q0 -145 71 -211t222 -66q181 0 277 97.5t131 320.5l151 944h201l-158 -993q-84 -535 -620 -535q-244 0 -362 110t-118 314zM618 1743l95 141l313 -225l-63 -96z" />
<glyph unicode="&#xda;" horiz-adv-x="1439" d="M143 399q0 62 13 138l153 966h201l-148 -932q-14 -80 -14 -153q0 -145 71 -211t222 -66q181 0 277 97.5t131 320.5l151 944h201l-158 -993q-84 -535 -620 -535q-244 0 -362 110t-118 314zM692 1659l377 225l66 -143l-400 -180z" />
<glyph unicode="&#xdb;" horiz-adv-x="1439" d="M143 399q0 62 13 138l153 966h201l-148 -932q-14 -80 -14 -153q0 -145 71 -211t222 -66q181 0 277 97.5t131 320.5l151 944h201l-158 -993q-84 -535 -620 -535q-244 0 -362 110t-118 314zM559 1636l289 240h108l211 -240l-67 -73l-211 168l-281 -168z" />
<glyph unicode="&#xdc;" horiz-adv-x="1439" d="M143 399q0 62 13 138l153 966h201l-148 -932q-14 -80 -14 -153q0 -145 71 -211t222 -66q181 0 277 97.5t131 320.5l151 944h201l-158 -993q-84 -535 -620 -535q-244 0 -362 110t-118 314zM604 1606l31 198h172l-33 -198h-170zM940 1606l31 198h172l-33 -198h-170z" />
<glyph unicode="&#xdd;" horiz-adv-x="1167" d="M129 1503h217l252 -747l492 747h221l-641 -936l-88 -567h-199l90 569zM567 1659l377 225l66 -143l-400 -180z" />
<glyph unicode="&#xde;" horiz-adv-x="1236" d="M84 0l238 1503h200l-45 -270h244q457 0 457 -383q0 -85 -19.5 -161t-67 -148t-118.5 -123.5t-181.5 -83t-248.5 -31.5h-213l-45 -303h-201zM354 459h197q199 0 309.5 94.5t110.5 296.5q0 108 -64 165.5t-215 57.5h-239z" />
<glyph unicode="&#xdf;" horiz-adv-x="1339" d="M47 0l162 1028q80 502 579 502q185 0 285.5 -82t100.5 -221q0 -149 -84 -314q-56 9 -76 9q-55 0 -97.5 -10.5t-73 -42t-30.5 -81.5q0 -48 29.5 -75t93.5 -54q9 -4 37 -15t39.5 -16t37 -17t37.5 -20t32.5 -22.5t31 -27.5t24.5 -32t20.5 -39t11.5 -45.5t5 -53.5 q0 -185 -123.5 -290.5t-308.5 -105.5q-174 0 -269.5 78.5t-86.5 247.5l168 27q-3 -110 43.5 -161.5t152.5 -51.5q105 0 173.5 57t68.5 166q0 65 -41.5 101t-128.5 71q-36 14 -51 20.5t-46 21.5t-45.5 26.5t-36 31t-31.5 39.5t-17.5 48t-7.5 61q0 95 48 161t122 95.5 t166 29.5q38 78 38 164q0 174 -229 174q-165 0 -255 -92.5t-122 -292.5l-155 -997h-191z" />
<glyph unicode="&#xe0;" horiz-adv-x="1112" d="M33 229q0 54 14.5 99.5t37 79.5t60.5 62t75 46.5t91.5 33.5t99 23t108 14.5t107.5 9t109 5.5l8 51q9 70 9 88q0 193 -189 193q-66 0 -112 -13.5t-72 -35.5t-39.5 -57.5t-16.5 -69.5t-1 -82l-170 -14q-5 50 -5 59q0 164 109.5 258t325.5 94q352 0 352 -323q0 -70 -14 -156 l-62 -393q-8 -45 3.5 -66.5t45.5 -21.5q11 0 51 8l-14 -119q-79 -14 -117 -14q-85 0 -114 38.5t-31 118.5q-56 -79 -148 -124.5t-208 -45.5q-147 0 -220 71t-73 183zM229 246q0 -70 41 -102.5t127 -32.5q109 0 196 75.5t107 190.5l17 96q-65 -2 -107 -4.5t-98.5 -8.5 t-92.5 -15.5t-75.5 -26.5t-62 -39.5t-37.5 -56.5t-15 -76zM414 1440l125 106l213 -315l-80 -68z" />
<glyph unicode="&#xe1;" horiz-adv-x="1112" d="M33 229q0 54 14.5 99.5t37 79.5t60.5 62t75 46.5t91.5 33.5t99 23t108 14.5t107.5 9t109 5.5l8 51q9 70 9 88q0 193 -189 193q-66 0 -112 -13.5t-72 -35.5t-39.5 -57.5t-16.5 -69.5t-1 -82l-170 -14q-5 50 -5 59q0 164 109.5 258t325.5 94q352 0 352 -323q0 -70 -14 -156 l-62 -393q-8 -45 3.5 -66.5t45.5 -21.5q11 0 51 8l-14 -119q-79 -14 -117 -14q-85 0 -114 38.5t-31 118.5q-56 -79 -148 -124.5t-208 -45.5q-147 0 -220 71t-73 183zM229 246q0 -70 41 -102.5t127 -32.5q109 0 196 75.5t107 190.5l17 96q-65 -2 -107 -4.5t-98.5 -8.5 t-92.5 -15.5t-75.5 -26.5t-62 -39.5t-37.5 -56.5t-15 -76zM455 1235l303 313l106 -114l-342 -271z" />
<glyph unicode="&#xe2;" horiz-adv-x="1112" d="M33 229q0 54 14.5 99.5t37 79.5t60.5 62t75 46.5t91.5 33.5t99 23t108 14.5t107.5 9t109 5.5l8 51q9 70 9 88q0 193 -189 193q-66 0 -112 -13.5t-72 -35.5t-39.5 -57.5t-16.5 -69.5t-1 -82l-170 -14q-5 50 -5 59q0 164 109.5 258t325.5 94q352 0 352 -323q0 -70 -14 -156 l-62 -393q-8 -45 3.5 -66.5t45.5 -21.5q11 0 51 8l-14 -119q-79 -14 -117 -14q-85 0 -114 38.5t-31 118.5q-56 -79 -148 -124.5t-208 -45.5q-147 0 -220 71t-73 183zM229 246q0 -70 41 -102.5t127 -32.5q109 0 196 75.5t107 190.5l17 96q-65 -2 -107 -4.5t-98.5 -8.5 t-92.5 -15.5t-75.5 -26.5t-62 -39.5t-37.5 -56.5t-15 -76zM297 1231l291 291h108l199 -291l-86 -68l-184 213l-265 -213z" />
<glyph unicode="&#xe3;" horiz-adv-x="1112" d="M33 229q0 54 14.5 99.5t37 79.5t60.5 62t75 46.5t91.5 33.5t99 23t108 14.5t107.5 9t109 5.5l8 51q9 70 9 88q0 193 -189 193q-66 0 -112 -13.5t-72 -35.5t-39.5 -57.5t-16.5 -69.5t-1 -82l-170 -14q-5 50 -5 59q0 164 109.5 258t325.5 94q352 0 352 -323q0 -70 -14 -156 l-62 -393q-8 -45 3.5 -66.5t45.5 -21.5q11 0 51 8l-14 -119q-79 -14 -117 -14q-85 0 -114 38.5t-31 118.5q-56 -79 -148 -124.5t-208 -45.5q-147 0 -220 71t-73 183zM229 246q0 -70 41 -102.5t127 -32.5q109 0 196 75.5t107 190.5l17 96q-65 -2 -107 -4.5t-98.5 -8.5 t-92.5 -15.5t-75.5 -26.5t-62 -39.5t-37.5 -56.5t-15 -76zM303 1262q36 103 89 147.5t108 44.5q58 0 140 -26.5t105 -26.5q55 0 86 76l97 -19q-37 -106 -90 -150t-105 -44q-61 0 -144 27.5t-104 27.5q-54 0 -86 -76z" />
<glyph unicode="&#xe4;" horiz-adv-x="1112" d="M33 229q0 54 14.5 99.5t37 79.5t60.5 62t75 46.5t91.5 33.5t99 23t108 14.5t107.5 9t109 5.5l8 51q9 70 9 88q0 193 -189 193q-66 0 -112 -13.5t-72 -35.5t-39.5 -57.5t-16.5 -69.5t-1 -82l-170 -14q-5 50 -5 59q0 164 109.5 258t325.5 94q352 0 352 -323q0 -70 -14 -156 l-62 -393q-8 -45 3.5 -66.5t45.5 -21.5q11 0 51 8l-14 -119q-79 -14 -117 -14q-85 0 -114 38.5t-31 118.5q-56 -79 -148 -124.5t-208 -45.5q-147 0 -220 71t-73 183zM229 246q0 -70 41 -102.5t127 -32.5q109 0 196 75.5t107 190.5l17 96q-65 -2 -107 -4.5t-98.5 -8.5 t-92.5 -15.5t-75.5 -26.5t-62 -39.5t-37.5 -56.5t-15 -76zM346 1253l31 201h170l-31 -201h-170zM682 1253l31 201h170l-31 -201h-170z" />
<glyph unicode="&#xe5;" horiz-adv-x="1112" d="M33 229q0 54 14.5 99.5t37 79.5t60.5 62t75 46.5t91.5 33.5t99 23t108 14.5t107.5 9t109 5.5l8 51q9 70 9 88q0 193 -189 193q-66 0 -112 -13.5t-72 -35.5t-39.5 -57.5t-16.5 -69.5t-1 -82l-170 -14q-5 50 -5 59q0 164 109.5 258t325.5 94q352 0 352 -323q0 -70 -14 -156 l-62 -393q-8 -45 3.5 -66.5t45.5 -21.5q11 0 51 8l-14 -119q-79 -14 -117 -14q-85 0 -114 38.5t-31 118.5q-56 -79 -148 -124.5t-208 -45.5q-147 0 -220 71t-73 183zM229 246q0 -70 41 -102.5t127 -32.5q109 0 196 75.5t107 190.5l17 96q-65 -2 -107 -4.5t-98.5 -8.5 t-92.5 -15.5t-75.5 -26.5t-62 -39.5t-37.5 -56.5t-15 -76zM410 1321q0 106 72.5 164.5t166.5 58.5q92 0 134 -41t42 -102q0 -106 -74 -163.5t-169 -57.5q-91 0 -131.5 40t-40.5 101zM530 1335q0 -34 15 -50.5t53 -16.5q42 0 72 32.5t30 88.5q0 33 -14.5 50t-52.5 17 q-43 0 -73 -32.5t-30 -88.5z" />
<glyph unicode="&#xe6;" horiz-adv-x="1718" d="M33 229q0 65 20 118t53.5 90t86.5 65.5t109.5 46t132 29t144.5 16.5t156 8l10 51q9 79 9 92q0 189 -191 189q-66 0 -112 -13.5t-72 -35.5t-39.5 -57.5t-16.5 -69.5t-1 -82l-170 -14q-21 189 87 300t339 111q245 0 313 -176q149 176 397 176q170 0 261 -93.5t91 -266.5 q0 -112 -32 -226h-699q-8 -62 -8 -96q0 -270 227 -270q103 0 178 56t107 171l168 -18q-96 -355 -467 -355q-145 0 -234 61.5t-124 170.5q-87 -134 -190.5 -183t-235.5 -49q-150 0 -223.5 71t-73.5 183zM229 246q0 -70 41 -102.5t127 -32.5q109 0 196 75.5t107 190.5l17 96 q-63 -2 -103.5 -4.5t-97 -8.5t-93 -15.5t-77 -26.5t-63.5 -39.5t-38.5 -56.5t-15.5 -76zM930 616h524q12 58 12 109q0 99 -50 154t-152 55q-138 0 -223.5 -90.5t-110.5 -227.5z" />
<glyph unicode="&#xe7;" horiz-adv-x="1048" d="M57 387q0 103 22.5 201t69.5 186.5t114.5 154.5t163.5 105t210 39q182 0 269 -89t87 -234q0 -20 -4 -60l-170 -12q0 6 1 18.5t1 18.5q0 213 -194 213q-76 0 -140 -33.5t-107 -87.5t-73 -125t-43.5 -144.5t-13.5 -146.5q0 -148 56 -210t175 -62q106 0 175.5 65.5 t101.5 173.5l168 -14q-38 -172 -152.5 -265.5t-286.5 -101.5l-49 -81q30 12 62 12q67 0 103 -36.5t36 -96.5q0 -101 -78 -160t-180 -59q-131 0 -191 100l82 70q45 -64 113 -64q48 0 78.5 25t30.5 71q0 64 -76 64q-26 0 -64 -21l-51 27l86 152q-164 15 -248 118.5t-84 288.5z " />
<glyph unicode="&#xe8;" horiz-adv-x="1075" d="M57 395q0 104 20.5 201t65.5 184.5t109.5 152t158.5 102.5t207 38q178 0 271.5 -94t93.5 -268q0 -97 -31 -224h-702q-6 -44 -6 -88q0 -56 11 -102.5t35.5 -88t70.5 -64.5t110 -23q103 0 178 56t107 171l168 -18q-93 -355 -467 -355q-199 0 -299.5 111t-100.5 309z M272 616h527q10 65 10 109q0 99 -51 154t-156 55q-133 0 -219 -91.5t-111 -226.5zM451 1440l124 106l213 -315l-79 -68z" />
<glyph unicode="&#xe9;" horiz-adv-x="1075" d="M57 395q0 104 20.5 201t65.5 184.5t109.5 152t158.5 102.5t207 38q178 0 271.5 -94t93.5 -268q0 -97 -31 -224h-702q-6 -44 -6 -88q0 -56 11 -102.5t35.5 -88t70.5 -64.5t110 -23q103 0 178 56t107 171l168 -18q-93 -355 -467 -355q-199 0 -299.5 111t-100.5 309z M272 616h527q10 65 10 109q0 99 -51 154t-156 55q-133 0 -219 -91.5t-111 -226.5zM498 1235l303 313l106 -114l-342 -271z" />
<glyph unicode="&#xea;" horiz-adv-x="1075" d="M57 395q0 104 20.5 201t65.5 184.5t109.5 152t158.5 102.5t207 38q178 0 271.5 -94t93.5 -268q0 -97 -31 -224h-702q-6 -44 -6 -88q0 -56 11 -102.5t35.5 -88t70.5 -64.5t110 -23q103 0 178 56t107 171l168 -18q-93 -355 -467 -355q-199 0 -299.5 111t-100.5 309z M272 616h527q10 65 10 109q0 99 -51 154t-156 55q-133 0 -219 -91.5t-111 -226.5zM342 1231l291 291h108l199 -291l-86 -68l-184 213l-264 -213z" />
<glyph unicode="&#xeb;" horiz-adv-x="1075" d="M57 395q0 104 20.5 201t65.5 184.5t109.5 152t158.5 102.5t207 38q178 0 271.5 -94t93.5 -268q0 -97 -31 -224h-702q-6 -44 -6 -88q0 -56 11 -102.5t35.5 -88t70.5 -64.5t110 -23q103 0 178 56t107 171l168 -18q-93 -355 -467 -355q-199 0 -299.5 111t-100.5 309z M272 616h527q10 65 10 109q0 99 -51 154t-156 55q-133 0 -219 -91.5t-111 -226.5zM391 1253l31 201h170l-31 -201h-170zM727 1253l31 201h170l-31 -201h-170z" />
<glyph unicode="&#xec;" horiz-adv-x="473" d="M39 0l164 1049h190l-164 -1049h-190zM127 1440l125 106l213 -315l-80 -68z" />
<glyph unicode="&#xed;" horiz-adv-x="473" d="M39 0l164 1049h190l-164 -1049h-190zM186 1235l303 313l107 -114l-342 -271z" />
<glyph unicode="&#xee;" horiz-adv-x="473" d="M20 1231l291 291h109l198 -291l-86 -68l-184 213l-264 -213zM39 0l164 1049h190l-164 -1049h-190z" />
<glyph unicode="&#xef;" horiz-adv-x="473" d="M39 0l164 1049h190l-164 -1049h-190zM72 1253l30 201h170l-30 -201h-170zM408 1253l30 201h170l-30 -201h-170z" />
<glyph unicode="&#xf0;" horiz-adv-x="1134" d="M55 403q0 56 11 146q17 107 59 199.5t107 165.5t159.5 115t208.5 42q72 0 139.5 -27.5t108.5 -74.5l6 4q-37 141 -135 268l-252 -117l-37 115l205 96q-68 65 -148 119l189 49q64 -40 119 -92l241 113l37 -117l-194 -90q168 -219 168 -543q0 -175 -35 -315 q-26 -106 -70.5 -191t-111.5 -152t-162.5 -104t-212.5 -37q-197 0 -298.5 113t-101.5 315zM252 397q0 -278 231 -278q70 0 127.5 28t98 77t68 108t44.5 129q23 115 23 198q0 127 -55.5 198t-172.5 71q-78 0 -141 -32.5t-105.5 -89t-69 -125.5t-38.5 -149q-10 -56 -10 -135z " />
<glyph unicode="&#xf1;" horiz-adv-x="1153" d="M39 0l164 1049h170l-13 -152h9q127 176 348 176q161 0 235 -86t74 -233q0 -51 -10 -123l-101 -631h-188l96 612q11 72 11 117q0 197 -181 197q-74 0 -134.5 -30t-100 -81t-65 -111t-36.5 -129l-88 -575h-190zM377 1262q36 103 88.5 147.5t107.5 44.5q58 0 140.5 -26.5 t105.5 -26.5q55 0 86 76l96 -19q-37 -106 -89.5 -150t-104.5 -44q-61 0 -144 27.5t-104 27.5q-54 0 -86 -76z" />
<glyph unicode="&#xf2;" horiz-adv-x="1132" d="M57 377q0 147 37 272.5t107.5 220.5t183 149t254.5 54q196 0 297.5 -103.5t101.5 -297.5q0 -115 -22.5 -218t-69.5 -191t-115 -152t-163.5 -100t-210.5 -36q-196 0 -298 104t-102 298zM250 385q0 -264 225 -264q82 0 147.5 35t106.5 90.5t68 129t38 144.5t11 142 q0 81 -19 137.5t-70.5 92.5t-135.5 36q-82 0 -148 -35.5t-107 -90.5t-68 -129t-37.5 -145t-10.5 -143zM459 1440l125 106l213 -315l-80 -68z" />
<glyph unicode="&#xf3;" horiz-adv-x="1132" d="M57 377q0 -194 102 -298t298 -104q115 0 210.5 36t163.5 100t115 152t69.5 191t22.5 218q0 194 -101.5 297.5t-297.5 103.5q-142 0 -254.5 -54t-183 -149t-107.5 -220.5t-37 -272.5zM250 385q0 72 10.5 143t37.5 145t68 129t107 90.5t148 35.5q84 0 135.5 -36t70.5 -92.5 t19 -137.5q0 -71 -11 -142t-38 -144.5t-68 -129t-106.5 -90.5t-147.5 -35q-225 0 -225 264zM502 1235l303 313l106 -114l-342 -271z" />
<glyph unicode="&#xf4;" horiz-adv-x="1132" d="M57 377q0 -194 102 -298t298 -104q115 0 210.5 36t163.5 100t115 152t69.5 191t22.5 218q0 194 -101.5 297.5t-297.5 103.5q-142 0 -254.5 -54t-183 -149t-107.5 -220.5t-37 -272.5zM250 385q0 72 10.5 143t37.5 145t68 129t107 90.5t148 35.5q84 0 135.5 -36t70.5 -92.5 t19 -137.5q0 -71 -11 -142t-38 -144.5t-68 -129t-106.5 -90.5t-147.5 -35q-225 0 -225 264zM354 1231l291 291h109l198 -291l-86 -68l-184 213l-264 -213z" />
<glyph unicode="&#xf5;" horiz-adv-x="1132" d="M57 377q0 -194 102 -298t298 -104q115 0 210.5 36t163.5 100t115 152t69.5 191t22.5 218q0 194 -101.5 297.5t-297.5 103.5q-142 0 -254.5 -54t-183 -149t-107.5 -220.5t-37 -272.5zM250 385q0 72 10.5 143t37.5 145t68 129t107 90.5t148 35.5q84 0 135.5 -36t70.5 -92.5 t19 -137.5q0 -71 -11 -142t-38 -144.5t-68 -129t-106.5 -90.5t-147.5 -35q-225 0 -225 264zM356 1262q36 103 89 147.5t108 44.5q58 0 140.5 -26.5t105.5 -26.5q55 0 86 76l96 -19q-37 -106 -90 -150t-105 -44q-61 0 -143.5 27.5t-103.5 27.5q-54 0 -86 -76z" />
<glyph unicode="&#xf6;" horiz-adv-x="1132" d="M57 377q0 -194 102 -298t298 -104q115 0 210.5 36t163.5 100t115 152t69.5 191t22.5 218q0 194 -101.5 297.5t-297.5 103.5q-142 0 -254.5 -54t-183 -149t-107.5 -220.5t-37 -272.5zM250 385q0 72 10.5 143t37.5 145t68 129t107 90.5t148 35.5q84 0 135.5 -36t70.5 -92.5 t19 -137.5q0 -71 -11 -142t-38 -144.5t-68 -129t-106.5 -90.5t-147.5 -35q-225 0 -225 264zM397 1253l31 201h170l-31 -201h-170zM733 1253l31 201h170l-31 -201h-170z" />
<glyph unicode="&#xf7;" horiz-adv-x="1187" d="M190 604l21 135h788l-20 -135h-789zM434 287l35 229h188l-36 -229h-187zM518 817l37 232h188l-36 -232h-189z" />
<glyph unicode="&#xf8;" horiz-adv-x="1132" d="M10 -53l123 159q-76 101 -76 271q0 147 37 272.5t107.5 220.5t183 149t254.5 54q121 0 205 -41l102 133l127 -80l-112 -145q77 -100 77 -268q0 -115 -22.5 -218t-69.5 -191t-115 -152t-163.5 -100t-210.5 -36q-118 0 -207 39l-115 -149zM250 385q0 -61 12 -111l479 625 q-50 29 -120 29q-82 0 -148 -35.5t-107 -90.5t-68 -129t-37.5 -145t-10.5 -143zM352 147q54 -26 123 -26q82 0 147.5 35t106.5 90.5t68 129t38 144.5t11 142q0 60 -12 112z" />
<glyph unicode="&#xf9;" horiz-adv-x="1124" d="M82 276q0 53 10 125l103 648h190l-98 -613q-13 -80 -13 -133q0 -86 37.5 -133t132.5 -47q68 0 125.5 30t96.5 80.5t65 111t37 128.5l88 576h191l-164 -1049h-170l12 152h-8q-127 -177 -334 -177q-301 0 -301 301zM432 1440l125 106l213 -315l-80 -68z" />
<glyph unicode="&#xfa;" horiz-adv-x="1124" d="M82 276q0 53 10 125l103 648h190l-98 -613q-13 -80 -13 -133q0 -86 37.5 -133t132.5 -47q68 0 125.5 30t96.5 80.5t65 111t37 128.5l88 576h191l-164 -1049h-170l12 152h-8q-127 -177 -334 -177q-301 0 -301 301zM485 1235l303 313l107 -114l-342 -271z" />
<glyph unicode="&#xfb;" horiz-adv-x="1124" d="M82 276q0 53 10 125l103 648h190l-98 -613q-13 -80 -13 -133q0 -86 37.5 -133t132.5 -47q68 0 125.5 30t96.5 80.5t65 111t37 128.5l88 576h191l-164 -1049h-170l12 152h-8q-127 -177 -334 -177q-301 0 -301 301zM336 1231l291 291h108l199 -291l-86 -68l-184 213 l-265 -213z" />
<glyph unicode="&#xfc;" horiz-adv-x="1124" d="M82 276q0 53 10 125l103 648h190l-98 -613q-13 -80 -13 -133q0 -86 37.5 -133t132.5 -47q68 0 125.5 30t96.5 80.5t65 111t37 128.5l88 576h191l-164 -1049h-170l12 152h-8q-127 -177 -334 -177q-301 0 -301 301zM377 1253l31 201h170l-31 -201h-170zM713 1253l30 201 h170l-30 -201h-170z" />
<glyph unicode="&#xfd;" horiz-adv-x="948" d="M-127 -373l41 131q67 -18 113 -18q39 0 68.5 13t58 46.5t52 74.5t60.5 114l10 20l-192 1041h201l114 -832h11l387 832h198l-536 -1051q-40 -80 -66.5 -127.5t-59.5 -98.5t-62 -78t-67 -51t-81 -33t-98 -9q-85 0 -152 26zM414 1235l303 313l106 -114l-342 -271z" />
<glyph unicode="&#xfe;" horiz-adv-x="1148" d="M-20 -375l296 1878h189l-94 -588h10q51 66 141 112t199 46q157 0 245.5 -98t88.5 -303q0 -70 -8 -133q-12 -83 -37 -160t-68.5 -152t-101 -130t-140 -88.5t-180.5 -33.5q-101 0 -168.5 41t-101.5 107h-8l-76 -498h-186zM285 389q0 -274 215 -274q140 0 231 116t117 301 q10 85 10 148q0 138 -52.5 198t-158.5 60q-75 0 -137.5 -34t-104 -92t-68.5 -127t-40 -148q-12 -76 -12 -148z" />
<glyph unicode="&#xff;" horiz-adv-x="948" d="M-127 -373l41 131q67 -18 113 -18q39 0 68.5 13t58 46.5t52 74.5t60.5 114l10 20l-192 1041h201l114 -832h11l387 832h198l-536 -1051q-40 -80 -66.5 -127.5t-59.5 -98.5t-62 -78t-67 -51t-81 -33t-98 -9q-85 0 -152 26zM309 1253l31 201h170l-31 -201h-170zM645 1253 l31 201h170l-31 -201h-170z" />
<glyph unicode="&#x152;" horiz-adv-x="1884" d="M104 545q0 113 21 233q24 156 80 288.5t143 238t215 165.5t283 60q99 0 192 -27h840l-27 -162h-612l-78 -489h545l-25 -160h-546l-82 -530h659l-24 -162h-928q-109 -25 -182 -25q-236 0 -355 143.5t-119 426.5zM313 532q0 -393 305 -393q130 0 236 45l178 1133 q-86 49 -203 49q-102 0 -187 -46t-145 -128t-100.5 -186.5t-62.5 -229.5q-21 -129 -21 -244z" />
<glyph unicode="&#x153;" horiz-adv-x="1828" d="M57 385q0 90 15 172q19 109 62.5 200.5t111.5 163t167.5 112t221.5 40.5q128 0 214.5 -49.5t127.5 -138.5q153 188 409 188q170 0 261.5 -93.5t91.5 -266.5q0 -108 -33 -226h-698q-9 -70 -9 -96q0 -270 228 -270q103 0 177 55.5t107 171.5l168 -18q-98 -355 -462 -355 q-259 0 -349 201q-155 -201 -413 -201q-194 0 -296 105.5t-102 304.5zM250 391q0 -128 51 -200t174 -72q78 0 141.5 31.5t106 87.5t70 124t41.5 148q14 89 14 156q0 262 -227 262q-77 0 -140 -30.5t-105.5 -84t-70 -120t-41.5 -144.5q-14 -74 -14 -158zM1028 616h524 q13 63 13 109q0 99 -50.5 154t-154.5 55q-136 0 -221.5 -90.5t-110.5 -227.5z" />
<glyph unicode="&#x178;" horiz-adv-x="1167" d="M129 1503h217l252 -747l492 747h221l-641 -936l-88 -567h-199l90 569zM471 1606l31 198h172l-33 -198h-170zM807 1606l31 198h172l-33 -198h-170z" />
<glyph unicode="&#x2c6;" horiz-adv-x="1024" d="M305 1231l291 291h109l198 -291l-86 -68l-184 213l-264 -213z" />
<glyph unicode="&#x2dc;" horiz-adv-x="1024" d="M311 1262q36 103 89 147.5t108 44.5q58 0 140.5 -26.5t105.5 -26.5q55 0 86 76l96 -19q-37 -106 -90 -150t-105 -44q-61 0 -143.5 27.5t-103.5 27.5q-54 0 -86 -76z" />
<glyph unicode="&#x2000;" horiz-adv-x="961" />
<glyph unicode="&#x2001;" horiz-adv-x="1923" />
<glyph unicode="&#x2002;" horiz-adv-x="961" />
<glyph unicode="&#x2003;" horiz-adv-x="1923" />
<glyph unicode="&#x2004;" horiz-adv-x="641" />
<glyph unicode="&#x2005;" horiz-adv-x="480" />
<glyph unicode="&#x2006;" horiz-adv-x="320" />
<glyph unicode="&#x2007;" horiz-adv-x="320" />
<glyph unicode="&#x2008;" horiz-adv-x="240" />
<glyph unicode="&#x2009;" horiz-adv-x="384" />
<glyph unicode="&#x200a;" horiz-adv-x="106" />
<glyph unicode="&#x2010;" horiz-adv-x="700" d="M49 502l25 155h555l-25 -155h-555z" />
<glyph unicode="&#x2011;" horiz-adv-x="700" d="M49 502l25 155h555l-25 -155h-555z" />
<glyph unicode="&#x2012;" horiz-adv-x="700" d="M49 502l25 155h555l-25 -155h-555z" />
<glyph unicode="&#x2013;" horiz-adv-x="901" d="M-16 559l24 148h901l-24 -148h-901z" />
<glyph unicode="&#x2014;" horiz-adv-x="1802" d="M-16 559l24 148h1802l-24 -148h-1802z" />
<glyph unicode="&#x2018;" horiz-adv-x="409" d="M147 991l33 201l162 336l76 -23l-107 -266h82l-39 -248h-207z" />
<glyph unicode="&#x2019;" horiz-adv-x="409" d="M162 989l108 266h-82l41 248h207l-35 -203l-161 -333z" />
<glyph unicode="&#x201a;" horiz-adv-x="409" d="M-20 -266l110 266h-84l39 248h207l-31 -203l-162 -334z" />
<glyph unicode="&#x201c;" horiz-adv-x="720" d="M147 991l33 201l162 336l76 -23l-107 -266h82l-39 -248h-207zM475 991l33 201l162 336l75 -23l-106 -266h82l-39 -248h-207z" />
<glyph unicode="&#x201d;" horiz-adv-x="737" d="M162 989l108 266h-82l41 248h207l-35 -203l-161 -333zM489 989l109 266h-82l41 248h207l-35 -203l-162 -333z" />
<glyph unicode="&#x201e;" horiz-adv-x="737" d="M-18 -266l108 266h-82l41 248h207l-35 -203l-162 -334zM305 -266l109 266h-82l41 248h207l-35 -203l-162 -334z" />
<glyph unicode="&#x2022;" horiz-adv-x="980" d="M291 653q0 103 62.5 174.5t174.5 71.5q77 0 125.5 -39.5t48.5 -118.5q0 -104 -63.5 -174.5t-175.5 -70.5q-76 0 -124 38.5t-48 118.5z" />
<glyph unicode="&#x2026;" horiz-adv-x="1388" d="M29 0l37 242h202l-39 -242h-200zM492 0l36 242h203l-39 -242h-200zM954 0l37 242h203l-39 -242h-201z" />
<glyph unicode="&#x202f;" horiz-adv-x="384" />
<glyph unicode="&#x2039;" horiz-adv-x="540" d="M53 514l326 399l102 -51l-252 -362l144 -344l-121 -56z" />
<glyph unicode="&#x203a;" horiz-adv-x="538" d="M-4 152l252 362l-142 344l119 55l201 -413l-328 -400z" />
<glyph unicode="&#x205f;" horiz-adv-x="480" />
<glyph unicode="&#x20ac;" horiz-adv-x="1218" d="M-27 516l47 143h115q2 21 10 72q5 37 15 88h-97l48 144h86q38 119 93.5 217.5t134 179t186.5 125.5t235 45q183 0 281 -105t98 -288q0 -40 -11 -115l-178 -16q6 56 6 100q0 141 -56.5 199.5t-164.5 58.5q-82 0 -151 -31.5t-121 -88.5t-90 -126t-66 -155h457l-47 -144 h-447q-6 -31 -14 -86q-8 -49 -10 -74h428l-47 -143h-389v-12q0 -188 60.5 -276.5t203.5 -88.5q263 0 356 326l174 -19q-56 -239 -201.5 -355t-353.5 -116q-438 0 -438 506v35h-152z" />
<glyph unicode="&#x2122;" horiz-adv-x="1669" d="M119 1393v110h602v-110h-232v-676h-139v676h-231zM827 717v786h187l219 -649l223 649h180v-786h-125v643l-221 -643h-116l-226 643v-643h-121z" />
<glyph unicode="&#x25fc;" horiz-adv-x="1044" d="M0 0v1044h1044v-1044h-1044z" />
</font>
</defs>
</svg>
